<?xml version="1.0" standalone="no"?>
<!DOCTYPE svg PUBLIC "-//W3C//DTD SVG 20010904//EN"
 "http://www.w3.org/TR/2001/REC-SVG-20010904/DTD/svg10.dtd">
<svg version="1.0" xmlns="http://www.w3.org/2000/svg"
 width="233.000000pt" height="193.000000pt" viewBox="0 0 233.000000 193.000000"
 preserveAspectRatio="xMidYMid meet">

<g transform="translate(0.000000,193.000000) scale(0.100000,-0.100000)"
fill="#000000" stroke="none">
<path d="M1116 1662 c-44 -113 -219 -452 -261 -507 l-45 -60 37 -8 c35 -7 40
-5 65 25 36 43 114 202 175 355 26 68 51 123 54 123 3 0 27 -55 54 -122 56
-142 144 -321 177 -360 20 -24 28 -27 59 -22 l37 6 -39 52 c-44 57 -186 332
-245 474 -21 50 -41 92 -44 92 -3 0 -13 -21 -24 -48z"/>
<path d="M1121 1426 c-35 -106 -104 -245 -151 -300 l-41 -49 31 -32 c101 -104
-74 -296 -270 -295 -81 1 -156 64 -148 125 3 21 -12 34 -102 93 -58 38 -106
68 -108 67 -1 -1 8 -21 21 -44 19 -33 23 -52 20 -85 -6 -54 15 -90 63 -108 28
-10 44 -28 80 -90 27 -48 55 -83 73 -92 83 -43 463 -72 734 -56 178 11 355 40
395 66 12 8 43 50 68 94 33 57 52 80 66 80 11 0 33 14 50 31 28 27 30 34 24
75 -5 38 -1 53 21 92 l28 47 -30 -19 c-185 -120 -195 -128 -195 -163 0 -47
-24 -79 -76 -99 -122 -46 -323 47 -363 169 -16 46 0 101 34 123 l24 16 -44 56
c-24 31 -58 85 -75 119 -35 72 -90 212 -90 230 0 35 -18 12 -39 -51z m87 -236
c16 -33 22 -62 22 -112 0 -79 -18 -129 -54 -153 -59 -39 -110 32 -110 155 0
104 33 163 88 158 25 -2 35 -11 54 -48z m-584 -482 c15 -24 -3 -52 -37 -56
-33 -4 -53 28 -37 59 14 25 58 23 74 -3z m1116 7 c26 -32 -13 -81 -47 -59 -35
22 -23 74 17 74 10 0 23 -7 30 -15z m-995 -49 c0 -52 -63 -62 -73 -12 -7 33 6
47 40 44 29 -3 33 -7 33 -32z m875 19 c10 -12 10 -21 2 -40 -13 -29 -43 -33
-66 -9 -19 18 -19 20 -6 45 13 23 52 25 70 4z m-748 -20 c8 -19 8 -28 -2 -40
-18 -21 -57 -19 -70 4 -13 25 -13 27 6 45 23 24 53 20 66 -9z m618 11 c6 -8
10 -25 8 -38 -2 -18 -10 -24 -35 -26 -28 -3 -33 1 -39 23 -11 45 37 75 66 41z
m-502 -8 c17 -17 15 -53 -3 -68 -24 -20 -65 3 -65 34 0 37 43 59 68 34z m126
-4 c9 -8 16 -22 16 -29 0 -16 -27 -45 -42 -45 -15 0 -48 30 -48 43 0 15 31 47
46 47 7 0 20 -7 28 -16z m124 4 c17 -17 15 -53 -3 -68 -24 -20 -65 3 -65 34 0
37 43 59 68 34z m126 -4 c9 -8 16 -22 16 -29 0 -16 -27 -45 -42 -45 -15 0 -48
30 -48 43 0 15 31 47 46 47 7 0 20 -7 28 -16z"/>
<path d="M169 1302 c17 -34 42 -52 198 -141 98 -56 194 -111 215 -123 32 -20
39 -21 62 -8 15 7 23 17 19 21 -7 6 -424 242 -491 278 l-23 12 20 -39z"/>
<path d="M1867 1193 l-258 -146 27 -17 c26 -18 27 -18 78 15 28 18 124 73 213
124 129 73 165 98 182 127 12 20 21 38 19 39 -2 2 -119 -62 -261 -142z"/>
<path d="M253 1155 c31 -53 42 -61 170 -135 130 -74 138 -77 148 -58 6 11 9
21 7 22 -78 52 -344 222 -350 224 -5 2 6 -22 25 -53z"/>
<path d="M2030 1196 c-8 -7 -80 -55 -160 -106 -175 -112 -172 -110 -157 -131
11 -14 28 -7 150 65 127 74 141 85 168 134 29 51 28 66 -1 38z"/>
<path d="M574 564 c3 -9 6 -20 6 -25 0 -18 63 -40 163 -56 78 -13 171 -17 402
-17 406 0 564 26 573 92 4 25 0 26 -48 11 -92 -28 -210 -40 -441 -46 -266 -6
-424 4 -567 38 -100 23 -96 23 -88 3z"/>
<path d="M590 475 c0 -7 -3 -20 -6 -29 -20 -52 480 -102 776 -77 150 13 272
33 321 54 32 13 36 19 32 42 -4 20 -10 24 -22 19 -49 -22 -215 -45 -370 -53
-273 -13 -559 5 -684 43 -38 11 -47 12 -47 1z"/>
<path d="M1714 400 c-6 -6 -46 -19 -89 -29 -260 -64 -848 -51 -1035 23 -12 5
-15 -4 -17 -48 -3 -52 -1 -57 30 -80 71 -53 229 -85 468 -93 398 -14 700 65
652 170 -7 16 -8 29 -1 41 11 20 6 30 -8 16z"/>
</g>
</svg>
