<svg xmlns="http://www.w3.org/2000/svg" width="1500" height="1500" xmlns:v="https://vecta.io/nano"><path fill="#fff" d="M0 0h1500v1500H0z"/><g transform="matrix(.666667 0 0 .666667 249.393939 546.955354)"><svg viewBox="0 0 396 161" preserveAspectRatio="xMidYMid meet" height="609" width="1500"><g transform="translate(.24 .018)"><svg height="160.965" width="395.52"><svg height="160.965" width="395.52"><g transform="translate(0 96.104)"><svg height="64.861" width="395.52"><svg height="64.861" width="395.52"><svg height="34.983" width="395.52"><svg width="395.52" viewBox="3.9 -35 518.93 45.9" height="34.983"><path d="M51.4-12.65l2.55 3.55Q50-4.9 43.73-2.13 37.45.65 28.6.65h0q-6.9 0-12.53-2.1-5.62-2.1-8.89-6.13Q3.9-11.6 3.9-17.1h0q0-5.55 3.3-9.6 3.3-4.05 8.87-6.18Q21.65-35 28.4-35h0q6.3 0 11.55 2.05 5.25 2.05 9.1 5.8h0L49-34.3h4.65v12.4l-3.3.6q-7.95-9.55-21.95-9.55h0q-5.5 0-9.85 1.72-4.35 1.73-6.8 4.85-2.45 3.13-2.45 7.13h0q0 4.1 2.58 7.17 2.57 3.08 6.97 4.73 4.4 1.65 9.75 1.65h0q7.85 0 13.5-2.55 5.65-2.55 9.3-6.5h0zm48.7-11.5l2.6.05V-13h-4.3v-6.6q-4.7.1-10.05 2.2-5.35 2.1-10.9 6.1h0v7.35H87.6V0H62.05v-3.95h10.5V-19.6h-10.5v-3.95h15.4v8.85q11.85-9.45 22.65-9.45h0zm31 24.8q-6 .05-10.98-1.48-4.97-1.52-7.9-4.35-2.92-2.82-2.92-6.67h0q0-3.9 2.95-6.7 2.95-2.8 7.95-4.23 5-1.42 11.1-1.42h0q5.95 0 10.9 1.45 4.95 1.45 7.87 4.25 2.93 2.8 2.93 6.65h0q0 3.85-2.9 6.7-2.9 2.85-7.9 4.35-5 1.5-11.1 1.45h0zm0-3.95q4.75 0 8.55-1 3.8-1 6-2.95 2.2-1.95 2.2-4.6h0q0-4.05-4.7-6.22-4.7-2.18-12.05-2.18h0q-7.35.05-12.03 2.2-4.67 2.15-4.67 6.2h0q0 2.65 2.2 4.6 2.2 1.95 6 2.95 3.8 1 8.5 1h0zm91.24-20.25v3.95h-7.25L203.34.65h-2.5L189.64-17 178.29.65h-2.45l-11.7-20.25h-7.1v-3.95h18.75v3.6h-6.5l8.45 15.15 11.25-18.15h2.45l11 18.1 8.65-15.1h-6.3v-3.6h17.55zm53.2 19.6h9.85V0h-23.55v-3.95h8.8v-4.8q0-4.8-2.27-7.93-2.28-3.12-7.98-3.12h0q-8.5 0-18.65 9.1h0v6.75h8.85V0h-24.25v-3.95h10.5V-19.6h-10.5v-3.95h15.4v8.85q4.45-4.1 9.32-6.78 4.88-2.67 10.18-2.67h0q7.65 0 10.98 4.47 3.32 4.48 3.32 11.33h0v4.4zm80.9 3.15q-1.7.8-3.41 1.15-1.7.35-4.09.35h0q-4.56 0-9.56-2.3h0Q332.99.75 325.63.75h0q-7.35 0-11.14-2.6-3.8-2.6-3.8-6.85h0q0-4.05 3.34-6.6 3.35-2.55 10.25-4.15h0q-.4-2.15-.4-4.25h0q0-3.1 1.43-5.65 1.43-2.55 3.93-4.03 2.5-1.47 5.64-1.47h0q2.7 0 4.68 1 1.97 1 3 2.7 1.02 1.7 1.02 3.75h0q0 3.7-3.3 6.52-3.29 2.83-10.09 4.18h0q1.44 3.3 4.05 6.02 2.59 2.73 5.84 4.53h0q3.8-1.75 6-4.25 2.2-2.5 2.2-5.2h0q0-1.55-.42-2.55-.42-1-1.33-2.3h0l4.16-1.4q1.05 1.4 1.64 2.85.61 1.45.61 3.6h0q0 2.95-2.18 5.93-2.18 2.97-6.02 5.32h0q2.45.65 4.29.65h0q2.05 0 3.53-.28 1.47-.27 2.97-.92h0l.91 3.9zm-21.5-30.05q-1.56 0-3 .82-1.45.83-2.36 2.45-.89 1.63-.89 3.88h0q0 1.7.3 3.3h0q5.25-1.2 7.52-2.98 2.27-1.77 2.27-3.82h0q0-1.65-1.02-2.65-1.02-1-2.82-1h0zm-9.11 27.6q4.55 0 8.91-1.05h0q-3.11-2.2-5.53-5.13-2.43-2.92-3.83-6.32h0q-5.35 1.15-7.67 2.65-2.33 1.5-2.33 3.95h0q0 2.6 2.5 4.25 2.5 1.65 7.95 1.65h0zm84.25-15.9q7.9.85 12.53 2.1 4.62 1.25 6.77 3.25 2.15 2 2.15 5.15h0q0 4.45-4.35 6.9Q422.83.7 415.43.7h0q-6.5 0-12.87-2.03-6.38-2.02-11.38-5.42h0V0h-4.7v-12.3l2.95-.6q4.75 4.45 11.77 6.97 7.03 2.53 14.28 2.53h0q4.95 0 7.85-1.35 2.9-1.35 2.9-3.9h0q0-1.8-1.75-2.88-1.75-1.07-5.75-1.8-4-.72-11.75-1.47h0q-7.55-.75-11.98-2.05-4.42-1.3-6.39-3.3-1.98-2-1.98-5.05h0q0-4.65 4.4-7.2 4.4-2.55 12.45-2.55h0q6.25 0 11.52 1.82 5.28 1.83 9.53 5.08h0v-6.25h4.65v12.1l-2.8.55q-4.15-4.4-9.9-6.78-5.75-2.37-13.05-2.37h0q-5.3 0-8.37 1.45-3.08 1.45-3.08 4.15h0q0 1.75 1.6 2.8 1.6 1.05 5.4 1.77 3.8.73 11.1 1.48h0zm41.85-9.75q-1.95 0-3.18-.85-1.22-.85-1.22-2.15h0q0-1.35 1.22-2.23 1.23-.87 3.18-.87h0q2 0 3.17.85 1.18.85 1.18 2.25h0q0 1.35-1.15 2.17-1.15.83-3.2.83h0zm3 24.95h10.15V0h-25.55v-3.95h10.5V-19.6h-10.5v-3.95h15.4v19.6zm51.8-20.25q4.75 0 8.4 1.35 3.65 1.35 5.67 3.95 2.03 2.6 2.03 6.25h0q0 4.05-2.63 7.07-2.62 3.03-7.05 4.65Q508.73.7 503.43.7h0q-9.8 0-19.15-4.15h0v10.4h10.45v3.95h-25.8V6.95h10.45V-19.6h-10.45v-3.95h15.35v7.35q5.8-3.8 11.2-5.9 5.4-2.1 11.25-2.1h0zm-3.85 20.75q4.25.05 7.62-1.08 3.38-1.12 5.28-3.17 1.9-2.05 1.9-4.7h0q0-3.55-3.08-5.58-3.07-2.02-8.62-2.02h0q-4.75 0-10.38 1.95-5.62 1.95-11.32 5.45h0v5.7q4.25 1.6 9.12 2.55 4.88.95 9.48.9h0z"/></svg></svg><g transform="translate(0 43.242)"><svg height="21.619" width="395.52"><svg width="395.52" viewBox="3.03 -40.43 922.013 50.43" height="21.619"><path d="M18.88 0h-4.13l-3.67-15.3h-1.3v-3.58h.97q1.8 0 2.54-.61.74-.61.76-2.11h0q.08-2.28.11-4.16.04-1.89.03-3.78-.01-1.89-.14-4.14h0q-.07-1.52-.79-2.13-.71-.62-2.46-.62h0-1.15V-40h1.15q3.75 0 5.43 1.5 1.67 1.5 1.8 4.98h0q.1 2.34.11 4.29.01 1.95 0 3.74-.01 1.79-.11 3.74h0q-.18 4.5-3.2 5.75h0l4.05 16zM7 0H3.03v-40H7V0zm26.14-6.15h0q-.05-1.8-.09-4.04-.03-2.24-.03-4.64 0-2.4.02-4.71.03-2.31.1-4.26h0q.15-3.2 1.6-4.74 1.45-1.54 4.58-1.79h0v3.18q-1.15.22-1.64.94-.49.71-.51 1.91h0q-.08 2.3-.1 4.59-.03 2.28-.03 4.57 0 2.29.03 4.63.02 2.33.1 4.76h0q.02 1.35.55 2.02.52.68 1.6.88h0V.33q-3.2-.25-4.62-1.79Q33.29-3 33.14-6.15zM41.99.33h0v-3.18q1.03-.23 1.49-.91.46-.69.51-2.02h0q.05-.75.05-2.02 0-1.28-.07-2.7h0 3.92q.08.85.09 2.2.01 1.35-.04 2.15h0q-.15 3.15-1.5 4.7Q45.09.1 41.99.33zm5.9-14.53h-8.5v-2.9h4.63q.05-1.45.05-2.94 0-1.49-.02-2.64-.01-1.15-.06-1.62h0q-.05-1.3-.55-1.96-.5-.67-1.45-.89h0v-3.18q3.08.25 4.45 1.8 1.38 1.55 1.5 4.6h0q.03.55.05 2.18.03 1.62.01 3.66-.01 2.04-.11 3.89h0zM67.91-36h-5.25v-4h5.25v4zm-.63 36h-3.97v-30h3.97V0zm21.54 5.53v2.85q-2.97-.16-4.55-1.19-1.57-1.04-1.8-2.94h0q-.02-.3-.03-.61-.02-.31.01-.64h0q.07-1.37 1.04-2.19.96-.81 2.28-1.04h0v-.7q-2.6-.65-2.75-2.6h0q-.05-.35-.02-.52.02-.18.02-.45h0q.05-1.03.84-1.76.79-.74 1.89-.89h0v-.73q-1.48-.7-2.2-2.12-.73-1.43-.85-3.68h0q-.08-1.52-.1-2.71-.03-1.18-.01-2.27.01-1.09.03-2.33.03-1.24.08-2.81h0q.17-3.18 1.6-4.73 1.42-1.55 4.52-1.8h0v3.18q-1.17.2-1.7.92-.52.73-.55 2.1h0q-.05 1.55-.07 3.5-.03 1.95-.01 3.88.01 1.92.08 3.45h0q.05 1.37.64 2.07.59.7 1.66.93h0v3.22q-1.37.1-1.97.58-.6.47-.6 1.27h0q0 .05 0 .13 0 .07 0 .15h0q0 .75.57 1.15.58.4 1.95.52h0V-.4q-1.47.07-2.37.61-.9.54-.98 1.84h0q-.05.25-.05.54 0 .29.05.59h0q.1 1.22.98 1.73.87.52 2.37.62h0zm2.65 2.85h0V5.55q1.6-.12 2.62-.65 1.01-.52 1.16-1.82h0q.07-.28.06-.57-.01-.28-.09-.58h0Q95.07.65 94.06.2q-1.01-.45-2.59-.58h0v-2.77q3.38.25 5.18 1.37 1.8 1.13 1.97 3.66h0q.05.27.07.67.01.4-.07.8h0Q98.45 6 96.45 7.1q-2 1.1-4.98 1.28zm0-15.53h0v-3.15q1.03-.25 1.57-.93.53-.67.61-2.07h0q.07-1.58.09-3.46.01-1.89-.02-3.83-.02-1.94-.1-3.66h0q-.07-1.33-.55-2.01-.47-.69-1.6-.89h0v-3.18q4 .3 5.23 2.95h0 .72q.1-1.25 1-1.93.9-.69 2.35-.69h0v3.1h-.52q-1.25 0-1.96.86-.72.86-.72 2.71h0v1.28q.05 1.65.05 2.94 0 1.29-.01 2.55-.01 1.26-.09 2.88h0q-.17 3.18-1.56 4.73-1.39 1.55-4.49 1.8zM118.17 0h-4v-30h4V0zm11.4 0h-3.98v-24.35q-.02-1.6-.72-2.3-.7-.7-2.23-.7h0q-.5 0-.95.1-.45.1-.85.27h0v-2.42q.63-.48 1.43-.73.8-.25 1.82-.25h0q2.78 0 4.11 1.5 1.34 1.5 1.37 4.83h0V0zm20.54-36h-5.25v-4h5.25v4zm-.63 36h-3.97v-30h3.97V0zm20.09 0h-4v-30h4V0zm11.4 0H177v-24.35q-.03-1.6-.73-2.3-.7-.7-2.22-.7h0q-.5 0-.95.1-.45.1-.85.27h0v-2.42q.62-.48 1.42-.73.8-.25 1.83-.25h0q2.77 0 4.11 1.5 1.34 1.5 1.36 4.83h0V0zm21.37 5.53v2.85q-2.97-.16-4.55-1.19-1.57-1.04-1.8-2.94h0q-.02-.3-.04-.61-.01-.31.02-.64h0q.07-1.37 1.03-2.19.97-.81 2.29-1.04h0v-.7q-2.6-.65-2.75-2.6h0q-.05-.35-.02-.52.02-.18.02-.45h0q.05-1.03.84-1.76.79-.74 1.89-.89h0v-.73q-1.48-.7-2.2-2.12-.73-1.43-.85-3.68h0q-.08-1.52-.1-2.71-.03-1.18-.02-2.27.02-1.09.04-2.33.03-1.24.08-2.81h0q.17-3.18 1.6-4.73 1.42-1.55 4.52-1.8h0v3.18q-1.17.2-1.7.92-.52.73-.55 2.1h0q-.05 1.55-.07 3.5-.03 1.95-.02 3.88.02 1.92.09 3.45h0q.05 1.37.64 2.07.59.7 1.66.93h0v3.22q-1.37.1-1.97.58-.6.47-.6 1.27h0q0 .05 0 .13 0 .07 0 .15h0q0 .75.57 1.15.58.4 1.95.52h0V-.4q-1.47.07-2.37.61-.9.54-.98 1.84h0q-.05.25-.05.54 0 .29.05.59h0q.1 1.22.98 1.73.87.52 2.37.62h0zm2.65 2.85h0V5.55q1.6-.12 2.61-.65 1.02-.52 1.17-1.82h0q.07-.28.06-.57-.01-.28-.09-.58h0Q208.59.65 207.58.2q-1.01-.45-2.59-.58h0v-2.77q3.38.25 5.18 1.37 1.8 1.13 1.97 3.66h0q.05.27.06.67.02.4-.06.8h0q-.17 2.65-2.17 3.75-2 1.1-4.98 1.28zm0-15.53h0v-3.15q1.03-.25 1.56-.93.54-.67.62-2.07h0q.07-1.58.08-3.46.02-1.89-.01-3.83-.02-1.94-.1-3.66h0q-.07-1.33-.55-2.01-.47-.69-1.6-.89h0v-3.18q4 .3 5.23 2.95h0 .72q.1-1.25 1-1.93.9-.69 2.35-.69h0v3.1h-.52q-1.25 0-1.97.86-.71.86-.71 2.71h0v1.28q.05 1.65.05 2.94 0 1.29-.01 2.55-.01 1.26-.09 2.88h0q-.17 3.18-1.56 4.73-1.39 1.55-4.49 1.8zm49.51 3.97V.3q-3.28-.25-4.78-1.86-1.5-1.62-1.6-5.02h0q-.02-1.42-.03-2.66-.02-1.24.01-2.5.02-1.26.07-2.74h0H252q-.1 2.23-.11 4.27-.02 2.03.11 4.13h0q.05 1.38.61 2.05.56.68 1.89.85h0zM257.17.3h0v-3.48q1.23-.2 1.75-.86.53-.66.63-2.04h0q.1-1.07.11-2.33.01-1.27-.02-2.52-.04-1.25-.09-2.35h0q-.05-2-.8-3-.75-1-2.45-1.42h0l-2.78-.68q-2.05-.5-3.22-1.46-1.18-.96-1.68-2.59-.5-1.62-.57-4.12h0q-.03-1.63-.01-3.39.01-1.76.03-3.56h0q.1-3.38 1.6-4.98 1.5-1.6 4.83-1.82h0v3.47q-1.28.18-1.84.84-.56.66-.61 2.04h0q-.1 1.9-.1 3.67 0 1.78.1 3.73h0q.05 2.15.6 3.16.55 1.01 1.9 1.34h0l2.62.6q2.35.55 3.72 1.52 1.36.98 1.97 2.61.61 1.62.69 4.04h0q.05 1.05.05 2.22 0 1.16-.03 2.31-.02 1.15-.05 2.17h0q-.15 3.4-1.62 5.03Q260.42.08 257.17.3zm6.15-26.43h-3.85q.08-2.3.09-4.17.01-1.88-.06-3.65h0q-.05-1.35-.58-2.03-.52-.67-1.75-.87h0v-3.45q3.18.25 4.63 1.85 1.45 1.6 1.57 5h0q.05 1.55.03 3.41-.03 1.86-.08 3.91h0zM278.67-6h0v-24h4.02l.03 24.32q0 1.6.66 2.3.66.7 2.16.7h0q1.03 0 1.8-.37h0V-.5q-1.32.88-3.1.88h0q-2.72 0-4.15-1.51-1.42-1.5-1.42-4.87zm15.35 6h-4.03v-30h4.03V0zm20.14 10h-4.05v-40h4.05v40zm2.65-10.43v-2.5q.32.15.72.2.4.05.85.05h0q1.5 0 2.25-.7.75-.7.8-2.3h0q.13-3.1.17-5.53.03-2.44.02-4.55-.01-2.12-.06-4.2-.05-2.09-.13-4.47h0q-.05-1.55-.7-2.23-.65-.69-2.17-.69h0q-.98 0-1.75.32h0v-2.57q.6-.38 1.34-.58.73-.2 1.76-.2h0q2.7 0 4.07 1.48 1.38 1.47 1.48 4.85h0q.05 1.52.09 3.94.03 2.41.03 5.08 0 2.68-.03 5.09-.04 2.41-.09 3.99h0q-.1 3.35-1.56 4.84-1.47 1.49-4.17 1.49h0q-1.8 0-2.92-.81h0zm28.34.43h-4.08v-30h4.08V0zm2.65-26.53h0v-3.05q1.05-.55 2.65-.55h0q.47 0 .94.04.46.04.93.11h0v3.08h-1.82q-1.63 0-2.7.37zm17.44 20.38h0q-.05-1.8-.09-4.04-.03-2.24-.03-4.64 0-2.4.02-4.71.03-2.31.1-4.26h0q.15-3.2 1.6-4.74 1.45-1.54 4.58-1.79h0v3.18q-1.15.22-1.64.94-.49.71-.51 1.91h0q-.08 2.3-.1 4.59-.03 2.28-.03 4.57 0 2.29.03 4.63.02 2.33.1 4.76h0q.02 1.35.55 2.02.52.68 1.6.88h0V.33q-3.2-.25-4.62-1.79-1.41-1.54-1.56-4.69zm8.85 6.48h0v-3.18q1.03-.23 1.49-.91.46-.69.51-2.02h0q.05-.75.05-2.02 0-1.28-.07-2.7h0 3.92q.08.85.09 2.2.01 1.35-.04 2.15h0q-.15 3.15-1.5 4.7Q377.19.1 374.09.33zm5.9-14.53h-8.5v-2.9h4.63q.05-1.45.05-2.94 0-1.49-.02-2.64-.01-1.15-.06-1.62h0q-.05-1.3-.55-1.96-.5-.67-1.45-.89h0v-3.18q3.08.25 4.45 1.8 1.38 1.55 1.5 4.6h0q.03.55.05 2.18.03 1.62.01 3.66-.01 2.04-.11 3.89h0zM399.38 0h-4v-30h4V0zm21.7 0h-4v-24.35q0-1.6-.68-2.3-.69-.7-2.07-.7h0q-.82 0-1.42.27h0v-2.57q.6-.35 1.32-.54.73-.19 1.6-.19h0q2.6 0 3.92 1.48 1.31 1.47 1.33 4.85h0V0zm-10.77 0h-4v-24.35q-.03-1.6-.69-2.3-.66-.7-2.06-.7h0q-.43 0-.84.07-.41.08-.74.23h0v-2.5q.58-.43 1.32-.63.73-.2 1.71-.2h0q2.6 0 3.94 1.48 1.33 1.47 1.36 4.85h0V0zm26.26-6.15h0q-.05-1.8-.08-4.04-.04-2.24-.04-4.64 0-2.4.02-4.71.03-2.31.1-4.26h0q.15-3.2 1.6-4.74 1.45-1.54 4.58-1.79h0v3.18q-1.15.22-1.64.94-.49.71-.51 1.91h0q-.08 2.3-.1 4.59-.03 2.28-.03 4.57 0 2.29.03 4.63.02 2.33.1 4.76h0q.02 1.35.55 2.02.52.68 1.6.88h0V.33q-3.2-.25-4.61-1.79-1.42-1.54-1.57-4.69zm8.85 6.48h0v-3.18q1.03-.23 1.49-.91.46-.69.51-2.02h0q.05-.75.05-2.02 0-1.28-.07-2.7h0 3.92q.08.85.09 2.2.01 1.35-.04 2.15h0q-.15 3.15-1.5 4.7Q448.52.1 445.42.33zm5.9-14.53h-8.5v-2.9h4.63q.05-1.45.05-2.94 0-1.49-.01-2.64-.02-1.15-.07-1.62h0q-.05-1.3-.55-1.96-.5-.67-1.45-.89h0v-3.18q3.08.25 4.45 1.8 1.38 1.55 1.5 4.6h0q.03.55.05 2.18.03 1.62.02 3.66-.02 2.04-.12 3.89h0zM492.21-36h-5.25v-4h5.25v4zm-.63 36h-3.97v-30h3.97V0zm20.09 0h-4v-30h4V0zm11.4 0h-3.97v-24.35q-.03-1.6-.73-2.3-.7-.7-2.22-.7h0q-.5 0-.95.1-.45.1-.85.27h0v-2.42q.62-.48 1.42-.73.8-.25 1.83-.25h0q2.77 0 4.11 1.5 1.34 1.5 1.36 4.83h0V0zm43.31-3.13V.35q-3.35-.22-4.92-1.84-1.58-1.61-1.63-5.04h0q-.05-3.67-.07-6.98-.03-3.31-.03-6.49 0-3.18.03-6.48.02-3.3.07-6.97h0q.05-3.35 1.64-4.98 1.59-1.62 4.91-1.85h0v3.45q-1.37.2-1.96.93-.59.72-.64 2.32h0q-.07 3.93-.12 7.22-.05 3.28-.05 6.37 0 3.09.05 6.38.05 3.28.12 7.23h0q.05 1.58.64 2.32.59.73 1.96.93h0zm2.68 3.46h0v-3.48q1.37-.2 1.96-.95.59-.75.66-2.28h0q.05-1.15.05-2.26 0-1.11-.02-2.5-.03-1.39-.08-3.29h0 3.98q.1 2.4.11 4.24.01 1.84-.06 3.66h0q-.15 3.38-1.7 4.99-1.55 1.62-4.9 1.87zm6.35-26.43h-3.95q.05-1.35.06-2.55.01-1.2.01-2.4 0-1.2-.05-2.53h0q-.05-1.5-.61-2.23-.56-.74-1.81-.99h0v-3.43q3.17.25 4.71 1.9 1.54 1.65 1.69 4.88h0q.05 1.3.06 2.49.01 1.18-.01 2.36-.03 1.17-.1 2.5h0zm15.44 19.45h0q-.08-1.53-.11-3.61-.04-2.09-.04-4.39 0-2.3.04-4.56.03-2.27.11-4.12h0q.17-3.5 1.56-5.13 1.39-1.64 4.69-1.87h0v3.18q-1.23.22-1.74.94-.51.71-.56 2.08h0q-.08 2-.13 4.23-.05 2.22-.05 4.57 0 2.35.04 4.74.04 2.39.14 4.69h0q.05 1.37.57 2.11.53.74 1.73.96h0V.33q-3.3-.25-4.71-1.91-1.42-1.65-1.54-5.07zm8.9 6.98h0v-3.16q1.2-.25 1.7-.97.5-.73.55-2.03h0q.07-2.27.12-4.53.05-2.27.07-4.55.01-2.29-.04-4.62-.05-2.32-.15-4.67h0q-.05-1.35-.56-2.05-.52-.7-1.69-.93h0v-3.15q2.22.15 3.55.94 1.32.79 1.95 2.28.62 1.48.72 3.78h0q.08 1.7.12 3.8.03 2.1.03 4.34 0 2.24-.03 4.44-.04 2.2-.12 4.1h0q-.12 2.3-.73 3.77-.62 1.48-1.94 2.27-1.33.79-3.55.94zm22.59-27.23h-2.62V-30h2.62v-3.9q0-3.5 1.74-5.01 1.74-1.52 5.54-1.52h0q.75 0 1.72.09.98.09 1.78.21h0v3.03q-.73-.05-1.59-.1-.86-.05-1.84-.05h0q-1.7 0-2.52.65-.83.65-.83 2.42h0L626.39 0h-4l-.05-26.9zm9.85 0h-3.77V-30h3.77v3.1zm12.92 0h-2.63V-30h2.63v-3.9q0-3.5 1.73-5.01 1.74-1.52 5.54-1.52h0q.75 0 1.73.09.97.09 1.77.21h0v3.03q-.72-.05-1.59-.1-.86-.05-1.83-.05h0q-1.7 0-2.53.65-.82.65-.82 2.42h0L649.16 0h-4l-.05-26.9zm9.85 0h-3.78V-30h3.78v3.1zm12.59 20.75h0q-.05-1.8-.09-4.04-.04-2.24-.04-4.64 0-2.4.03-4.71.02-2.31.1-4.26h0q.15-3.2 1.6-4.74 1.45-1.54 4.57-1.79h0v3.18q-1.15.22-1.63.94-.49.71-.52 1.91h0q-.07 2.3-.1 4.59-.02 2.28-.02 4.57 0 2.29.02 4.63.03 2.33.1 4.76h0q.03 1.35.55 2.02.53.68 1.6.88h0V.33q-3.2-.25-4.61-1.79-1.41-1.54-1.56-4.69zM676.4.33h0v-3.18q1.02-.23 1.49-.91.46-.69.51-2.02h0q.05-.75.05-2.02 0-1.28-.08-2.7h0 3.93q.07.85.09 2.2.01 1.35-.04 2.15h0q-.15 3.15-1.5 4.7Q679.5.1 676.4.33zm5.9-14.53h-8.5v-2.9h4.62q.05-1.45.05-2.94 0-1.49-.01-2.64-.01-1.15-.06-1.62h0q-.05-1.3-.55-1.96-.5-.67-1.45-.89h0v-3.18q3.07.25 4.45 1.8 1.37 1.55 1.5 4.6h0q.02.55.05 2.18.02 1.62.01 3.66-.01 2.04-.11 3.89h0zm14.97 8.05h0q-.05-1.8-.09-4.04-.04-2.24-.04-4.64 0-2.4.03-4.71.02-2.31.1-4.26h0q.15-3.2 1.6-4.74 1.45-1.54 4.57-1.79h0v3.18q-1.15.22-1.64.94-.48.71-.51 1.91h0q-.07 2.3-.1 4.59-.02 2.28-.02 4.57 0 2.29.02 4.63.03 2.33.1 4.76h0q.03 1.35.55 2.02.53.68 1.6.88h0V.33q-3.2-.25-4.61-1.79-1.41-1.54-1.56-4.69zm8.85 6.48h0v-3.18q1.02-.23 1.48-.91.47-.69.52-2.02h0q.05-.75.05-2.02 0-1.28-.08-2.7h0 3.93q.07.85.08 2.2.02 1.35-.03 2.15h0q-.15 3.15-1.5 4.7Q709.22.1 706.12.33zm5.9-14.53h-8.5v-2.9h4.62q.05-1.45.05-2.94 0-1.49-.01-2.64-.01-1.15-.06-1.62h0q-.05-1.3-.55-1.96-.5-.67-1.45-.89h0v-3.18q3.07.25 4.45 1.8 1.37 1.55 1.5 4.6h0q.02.55.05 2.18.02 1.62.01 3.66-.01 2.04-.11 3.89h0zM754.8-3.13V.35q-3.35-.22-4.93-1.84-1.57-1.61-1.62-5.04h0q-.05-3.67-.08-6.98-.02-3.31-.02-6.49 0-3.18.02-6.48.03-3.3.08-6.97h0q.05-3.35 1.64-4.98 1.58-1.62 4.91-1.85h0v3.45q-1.38.2-1.96.93-.59.72-.64 2.32h0q-.08 3.93-.13 7.22-.05 3.28-.05 6.37 0 3.09.05 6.38.05 3.28.13 7.23h0q.05 1.58.64 2.32.58.73 1.96.93h0zm2.67 3.46h0v-3.48q1.38-.2 1.97-.95.58-.75.66-2.28h0q.05-1.15.05-2.26 0-1.11-.03-2.5-.02-1.39-.07-3.29h0 3.97q.1 2.4.12 4.24.01 1.84-.07 3.66h0q-.15 3.38-1.7 4.99-1.55 1.62-4.9 1.87zm6.35-26.43h-3.95q.05-1.35.07-2.55.01-1.2.01-2.4 0-1.2-.05-2.53h0q-.05-1.5-.61-2.23-.57-.74-1.82-.99h0v-3.43q3.18.25 4.72 1.9 1.53 1.65 1.68 4.88h0q.05 1.3.07 2.49.01 1.18-.02 2.36-.02 1.17-.1 2.5h0zM779.22-6h0v-24h4.02l.03 24.32q0 1.6.66 2.3.66.7 2.16.7h0q1.03 0 1.8-.37h0V-.5q-1.32.88-3.1.88h0q-2.72 0-4.15-1.51-1.42-1.5-1.42-4.87zm15.35 6h-4.03v-30h4.03V0zm20.06 0h-3.97v-40h3.97V0zm16.42-26.9h-2.4V-30h2.4v-8.5h4v32.72q0 1.8.66 2.44.66.64 2.66.64h0q.78 0 1.32-.04.53-.04 1.23-.11h0V.13q-.6.12-1.23.18-.64.07-1.37.07h0q-4.02 0-5.65-1.51-1.62-1.5-1.62-5.1h0V-26.9zm9.3 0h-3.4V-30h3.4v3.1zM854.56-6h0v-24h4.03l.02 24.32q0 1.6.67 2.3.66.7 2.16.7h0q1.02 0 1.8-.37h0V-.5q-1.33.88-3.1.88h0q-2.73 0-4.15-1.51-1.43-1.5-1.43-4.87zm15.35 6h-4.02v-30h4.02V0zm20.17 0h-4.07v-30h4.07V0zm2.65-26.53h0v-3.05q1.05-.55 2.65-.55h0q.48 0 .94.04.46.04.94.11h0v3.08h-1.83q-1.62 0-2.7.37zm17.44 20.38h0q-.05-1.8-.08-4.04-.04-2.24-.04-4.64 0-2.4.02-4.71.03-2.31.1-4.26h0q.15-3.2 1.6-4.74 1.45-1.54 4.58-1.79h0v3.18q-1.15.22-1.64.94-.49.71-.51 1.91h0q-.08 2.3-.1 4.59-.03 2.28-.03 4.57 0 2.29.03 4.63.02 2.33.1 4.76h0q.02 1.35.55 2.02.52.68 1.6.88h0V.33q-3.2-.25-4.61-1.79-1.42-1.54-1.57-4.69zm8.85 6.48h0v-3.18q1.03-.23 1.49-.91.46-.69.51-2.02h0q.05-.75.05-2.02 0-1.28-.07-2.7h0 3.92q.08.85.09 2.2.01 1.35-.04 2.15h0q-.15 3.15-1.5 4.7Q922.12.1 919.02.33zm5.9-14.53h-8.5v-2.9h4.63q.05-1.45.05-2.94 0-1.49-.01-2.64-.02-1.15-.07-1.62h0q-.05-1.3-.55-1.96-.5-.67-1.45-.89h0v-3.18q3.08.25 4.45 1.8 1.38 1.55 1.5 4.6h0q.03.55.05 2.18.03 1.62.02 3.66-.02 2.04-.12 3.89h0z"/></svg></svg></g></svg></svg></g><g transform="translate(153.837)"><svg height="87.845" width="87.845"><svg height="87.845" width="87.845"><path d="M26.353 87.845C11.798 87.845 0 76.047 0 61.491V26.353C0 11.798 11.798 0 26.353 0h35.138c14.555 0 26.354 11.798 26.354 26.353v35.138c0 14.555-11.798 26.354-26.354 26.354z"/><g transform="translate(17.569 23.424)"><svg height="40.997" width="52.707"><svg viewBox="0.664 9.656 98.669 76.747" height="40.997" width="52.707"><g fill="#fff"><path d="M75.508 78.368c-1.392.636-3.186 1.204-5.395 1.714-5.289 1.215-12.296 1.883-19.74 1.883s-14.453-.668-19.74-1.883c-2.209-.51-4.001-1.078-5.395-1.714a19.03 19.03 0 0 1-.77-.172c-.225.22-.342.43-.342.618 0 1.717 9.262 5.054 26.246 5.054s26.246-3.337 26.246-5.054c0-.188-.118-.398-.342-.618a17.17 17.17 0 0 1-.768.172zM14.844 44.397l4.451 2.609 1.836 1.104c.381-.637.851-1.258 1.393-1.857l-1.043-.646-3.818-2.382-4.347-2.78-4.311-2.839-3.729-2.532-1.087-.756 3.434 6.018 2.733 1.512 4.488 2.549zm-4.952-8.24l4.487 2.551 4.451 2.608 3.857 2.32 1.539.928.064.039c.766-.607 1.617-1.168 2.549-1.664L.664 28.146l2.49 4.363 2.791 1.479 3.947 2.169zm81.099 1.449l-4.31 2.839-4.348 2.78-3.817 2.382-1.044.646c.541.6 1.014 1.221 1.391 1.857l1.837-1.104 4.453-2.609 4.485-2.55 2.734-1.512 3.436-6.018-1.088.756-3.729 2.533zm-17.833 5.333c.929.496 1.779 1.057 2.547 1.664l.064-.039 1.537-.928 3.859-2.32 4.451-2.608 4.488-2.551 3.945-2.169 2.79-1.479 2.494-4.363-26.175 14.793zM37.521 41.18l.077-.084.575-.655a21.42 21.42 0 0 0 1.247-1.702l1.315-2.152 1.342-2.499 1.331-2.739 1.302-2.877 2.396-5.767 2.012-5.088.877-2.237.877 2.237 2.014 5.088 2.396 5.767 1.303 2.877 1.334 2.739 1.338 2.499 1.316 2.152 1.25 1.702c.188.252.387.458.574.655l.076.084c1.301-.324 2.783-.411 4.352-.241l-.162-.188c-5.72-4.562-16.667-31.095-16.667-31.095S39.052 36.189 33.331 40.75l-.161.188c1.567-.169 3.051-.083 4.351.242zm34.134 26.392c-5.716.938-13.31 1.451-21.377 1.451s-15.661-.514-21.379-1.451c-3.494-.573-5.717-1.317-7.122-1.94.125.682.266 1.368.403 2.368h.041c.227 2 10.06 3.916 28.058 3.916S78.107 70 78.334 68h.231c.145-1 .292-1.763.424-2.46-1.393.652-3.662 1.429-7.334 2.032zM21.967 73h.254c.227 1 10.06 3.914 28.058 3.914S78.107 74 78.334 73h.441c-.165 0-.372-.611-.648-.894a50.19 50.19 0 0 1 .18-1.839c-4.918 2.729-19.572 3.516-28.028 3.516-8.339 0-22.709-.766-27.826-3.403.063.548.118 1.127.169 1.726-.28.283-.487.894-.655.894z"/><path d="M79.146 74.461c-3.803 3.186-19.855 4.078-28.868 4.078-8.861 0-24.526-.865-28.664-3.924.058.709.366 1.369.944 1.983-.643.681-.967 1.417-.967 2.216 0 2.443 2.957 4.309 9.041 5.705 5.287 1.215 12.299 1.884 19.74 1.884s14.451-.669 19.74-1.884c6.084-1.396 9.043-3.262 9.043-5.705 0-.799-.324-1.535-.968-2.216.62-.659.94-1.369.959-2.137zm-28.773 9.407c-16.984 0-26.246-3.337-26.246-5.054 0-.188.117-.398.342-.618.235.058.492.116.77.172 1.394.636 3.186 1.204 5.395 1.714 5.287 1.215 12.299 1.883 19.74 1.883s14.451-.668 19.74-1.883c2.209-.51 4.003-1.078 5.395-1.714.279-.056.535-.114.77-.172.224.22.342.43.342.618-.002 1.717-9.265 5.054-26.248 5.054zm40.529-40.573l-4.312 2.841-4.344 2.778-2.094 1.305c.352 1.29.32 2.559-.181 3.705-1.669 3.817-7.843 4.805-13.79 2.205s-9.419-7.799-7.75-11.617c.57-1.309 1.672-2.281 3.109-2.893-.098-.083-.197-.164-.293-.256-.523-.447-1.056-1.004-1.598-1.637-.553-.628-1.09-1.352-1.625-2.129-.554-.771-1.061-1.627-1.574-2.514-.522-.885-.994-1.83-1.47-2.793a52.69 52.69 0 0 1-1.339-2.953l-1.201-3.004-1.045-2.943c-.381-1.15-.719-2.25-1.023-3.29-.304 1.04-.641 2.14-1.021 3.29-.326.959-.68 1.947-1.047 2.943-.365 1.004-.785 2.002-1.201 3.004a48.72 48.72 0 0 1-1.342 2.953c-.471.963-.946 1.908-1.468 2.793-.512.887-1.021 1.742-1.571 2.514-.536.777-1.076 1.501-1.627 2.129-.543.633-1.074 1.189-1.596 1.637-.098.092-.197.173-.295.256 1.437.611 2.537 1.584 3.107 2.893 1.67 3.818-1.799 9.018-7.748 11.617s-12.119 1.612-13.791-2.205c-.5-1.146-.531-2.415-.18-3.705L18.5 48.914l-4.347-2.778-4.312-2.841c-.085-.059-.165-.11-.249-.166l2.919 5.109c-1.202 1.319-1.141 3.6.24 5.357 1.04 1.322 2.548 1.996 3.896 1.887l4.672 8.179c1.613 1.306 10.709 3.583 28.958 3.583C70.518 67.244 79.502 64 79.502 63h.144l4.451-7.656c1.351.109 2.856-.495 3.896-1.817 1.383-1.758 1.444-4.003.242-5.323l2.918-5.074c-.087.055-.166.106-.251.165zM22.525 62.684a2.12 2.12 0 1 1 0-4.24 2.12 2.12 0 1 1 0 4.24zm6.19 1.386a2.12 2.12 0 1 1 0-4.24c1.17 0 2.117.948 2.117 2.12a2.12 2.12 0 0 1-2.117 2.12zm6.185.694a2.12 2.12 0 0 1-2.121-2.121c0-1.172.951-2.122 2.121-2.122a2.122 2.122 0 1 1 0 4.243zm6.19.693c-1.172 0-2.123-.95-2.123-2.119s.951-2.121 2.123-2.121a2.12 2.12 0 1 1 0 4.24zm6.185 0a2.12 2.12 0 1 1 0-4.24 2.12 2.12 0 1 1 0 4.24zm3.098-15.906c-.027.001-.056.009-.082.009-2.29 0-4.146-3.677-4.146-8.209s1.856-8.21 4.146-8.21c.026 0 .055.01.082.01s.057-.01.084-.01c2.289 0 4.145 3.676 4.145 8.21s-1.855 8.209-4.145 8.209c-.027 0-.055-.008-.084-.009zm3.09 15.906a2.12 2.12 0 1 1 0-4.24 2.12 2.12 0 1 1 0 4.24zm6.187 0a2.12 2.12 0 1 1 2.121-2.119c0 1.169-.951 2.119-2.121 2.119zm6.188-.693a2.122 2.122 0 1 1 0-4.243 2.12 2.12 0 0 1 2.119 2.122c0 1.172-.945 2.121-2.119 2.121zm6.187-.694a2.12 2.12 0 1 1 0-4.24 2.12 2.12 0 1 1 0 4.24zm6.188-1.386a2.12 2.12 0 1 1 0-4.24 2.12 2.12 0 1 1 0 4.24z"/></g></svg></svg></g></svg></svg></g></svg></svg></g></svg></g></svg>