<svg xmlns="http://www.w3.org/2000/svg" version="1.1" xmlns:xlink="http://www.w3.org/1999/xlink" xmlns:svgjs="http://svgjs.dev/svgjs" width="1500" height="609" viewBox="0 0 1500 609"><g transform="matrix(1,0,0,1,-0.9090909090909918,-0.06696864919808831)"><svg viewBox="0 0 396 161" data-background-color="#ffffff" preserveAspectRatio="xMidYMid meet" height="609" width="1500" xmlns="http://www.w3.org/2000/svg" xmlns:xlink="http://www.w3.org/1999/xlink"><g id="tight-bounds" transform="matrix(1,0,0,1,0.2400000000000091,0.01770435553513039)"><svg viewBox="0 0 395.52 160.96459128892974" height="160.96459128892974" width="395.52"><g><svg viewBox="0 0 395.52 160.96459128892974" height="160.96459128892974" width="395.52"><g transform="matrix(1,0,0,1,0,96.10366440971596)"><svg viewBox="0 0 395.52 64.86092687921379" height="64.86092687921379" width="395.52"><g id="textblocktransform"><svg viewBox="0 0 395.52 64.86092687921379" height="64.86092687921379" width="395.52" id="textblock"><g><svg viewBox="0 0 395.52 34.98288467097022" height="34.98288467097022" width="395.52"><g transform="matrix(1,0,0,1,0,0)"><svg width="395.52" viewBox="3.9 -35 518.9300000000001 45.9" height="34.98288467097022" data-palette-color="#000000"><path d="M51.4-12.65L53.95-9.1Q50-4.9 43.73-2.13 37.45 0.65 28.6 0.65L28.6 0.65Q21.7 0.65 16.07-1.45 10.45-3.55 7.18-7.58 3.9-11.6 3.9-17.1L3.9-17.1Q3.9-22.65 7.2-26.7 10.5-30.75 16.07-32.88 21.65-35 28.4-35L28.4-35Q34.7-35 39.95-32.95 45.2-30.9 49.05-27.15L49.05-27.15 49-34.3 53.65-34.3 53.65-21.9 50.35-21.3Q42.4-30.85 28.4-30.85L28.4-30.85Q22.9-30.85 18.55-29.13 14.2-27.4 11.75-24.28 9.3-21.15 9.3-17.15L9.3-17.15Q9.3-13.05 11.88-9.98 14.45-6.9 18.85-5.25 23.25-3.6 28.6-3.6L28.6-3.6Q36.45-3.6 42.1-6.15 47.75-8.7 51.4-12.65L51.4-12.65ZM100.1-24.15L102.7-24.1 102.7-13 98.4-13 98.4-19.6Q93.7-19.5 88.35-17.4 83-15.3 77.45-11.3L77.45-11.3 77.45-3.95 87.6-3.95 87.6 0 62.05 0 62.05-3.95 72.55-3.95 72.55-19.6 62.05-19.6 62.05-23.55 77.45-23.55 77.45-14.7Q89.3-24.15 100.1-24.15L100.1-24.15ZM131.1 0.65Q125.1 0.7 120.12-0.83 115.15-2.35 112.22-5.18 109.3-8 109.3-11.85L109.3-11.85Q109.3-15.75 112.25-18.55 115.2-21.35 120.2-22.78 125.2-24.2 131.3-24.2L131.3-24.2Q137.25-24.2 142.2-22.75 147.15-21.3 150.07-18.5 153-15.7 153-11.85L153-11.85Q153-8 150.1-5.15 147.2-2.3 142.2-0.8 137.2 0.7 131.1 0.65L131.1 0.65ZM131.1-3.3Q135.85-3.3 139.65-4.3 143.45-5.3 145.65-7.25 147.85-9.2 147.85-11.85L147.85-11.85Q147.85-15.9 143.15-18.07 138.45-20.25 131.1-20.25L131.1-20.25Q123.75-20.2 119.07-18.05 114.4-15.9 114.4-11.85L114.4-11.85Q114.4-9.2 116.6-7.25 118.8-5.3 122.6-4.3 126.4-3.3 131.1-3.3L131.1-3.3ZM222.34-23.55L222.34-19.6 215.09-19.6 203.34 0.65 200.84 0.65 189.64-17 178.29 0.65 175.84 0.65 164.14-19.6 157.04-19.6 157.04-23.55 175.79-23.55 175.79-19.95 169.29-19.95 177.74-4.8 188.99-22.95 191.44-22.95 202.44-4.85 211.09-19.95 204.79-19.95 204.79-23.55 222.34-23.55ZM275.54-3.95L285.39-3.95 285.39 0 261.84 0 261.84-3.95 270.64-3.95 270.64-8.75Q270.64-13.55 268.37-16.68 266.09-19.8 260.39-19.8L260.39-19.8Q251.89-19.8 241.74-10.7L241.74-10.7 241.74-3.95 250.59-3.95 250.59 0 226.34 0 226.34-3.95 236.84-3.95 236.84-19.6 226.34-19.6 226.34-23.55 241.74-23.55 241.74-14.7Q246.19-18.8 251.06-21.48 255.94-24.15 261.24-24.15L261.24-24.15Q268.89-24.15 272.22-19.68 275.54-15.2 275.54-8.35L275.54-8.35 275.54-3.95ZM356.44-0.8Q354.74 0 353.03 0.35 351.33 0.7 348.94 0.7L348.94 0.7Q344.38 0.7 339.38-1.6L339.38-1.6Q332.99 0.75 325.63 0.75L325.63 0.75Q318.28 0.75 314.49-1.85 310.69-4.45 310.69-8.7L310.69-8.7Q310.69-12.75 314.03-15.3 317.38-17.85 324.28-19.45L324.28-19.45Q323.88-21.6 323.88-23.7L323.88-23.7Q323.88-26.8 325.31-29.35 326.74-31.9 329.24-33.38 331.74-34.85 334.88-34.85L334.88-34.85Q337.58-34.85 339.56-33.85 341.53-32.85 342.56-31.15 343.58-29.45 343.58-27.4L343.58-27.4Q343.58-23.7 340.28-20.88 336.99-18.05 330.19-16.7L330.19-16.7Q331.63-13.4 334.24-10.68 336.83-7.95 340.08-6.15L340.08-6.15Q343.88-7.9 346.08-10.4 348.28-12.9 348.28-15.6L348.28-15.6Q348.28-17.15 347.86-18.15 347.44-19.15 346.53-20.45L346.53-20.45 350.69-21.85Q351.74-20.45 352.33-19 352.94-17.55 352.94-15.4L352.94-15.4Q352.94-12.45 350.76-9.47 348.58-6.5 344.74-4.15L344.74-4.15Q347.19-3.5 349.03-3.5L349.03-3.5Q351.08-3.5 352.56-3.78 354.03-4.05 355.53-4.7L355.53-4.7 356.44-0.8ZM334.94-30.85Q333.38-30.85 331.94-30.03 330.49-29.2 329.58-27.58 328.69-25.95 328.69-23.7L328.69-23.7Q328.69-22 328.99-20.4L328.99-20.4Q334.24-21.6 336.51-23.38 338.78-25.15 338.78-27.2L338.78-27.2Q338.78-28.85 337.76-29.85 336.74-30.85 334.94-30.85L334.94-30.85ZM325.83-3.25Q330.38-3.25 334.74-4.3L334.74-4.3Q331.63-6.5 329.21-9.43 326.78-12.35 325.38-15.75L325.38-15.75Q320.03-14.6 317.71-13.1 315.38-11.6 315.38-9.15L315.38-9.15Q315.38-6.55 317.88-4.9 320.38-3.25 325.83-3.25L325.83-3.25ZM410.08-19.15Q417.98-18.3 422.61-17.05 427.23-15.8 429.38-13.8 431.53-11.8 431.53-8.65L431.53-8.65Q431.53-4.2 427.18-1.75 422.83 0.7 415.43 0.7L415.43 0.7Q408.93 0.7 402.56-1.33 396.18-3.35 391.18-6.75L391.18-6.75 391.18 0 386.48 0 386.48-12.3 389.43-12.9Q394.18-8.45 401.2-5.93 408.23-3.4 415.48-3.4L415.48-3.4Q420.43-3.4 423.33-4.75 426.23-6.1 426.23-8.65L426.23-8.65Q426.23-10.45 424.48-11.53 422.73-12.6 418.73-13.33 414.73-14.05 406.98-14.8L406.98-14.8Q399.43-15.55 395-16.85 390.58-18.15 388.61-20.15 386.63-22.15 386.63-25.2L386.63-25.2Q386.63-29.85 391.03-32.4 395.43-34.95 403.48-34.95L403.48-34.95Q409.73-34.95 415-33.13 420.28-31.3 424.53-28.05L424.53-28.05 424.53-34.3 429.18-34.3 429.18-22.2 426.38-21.65Q422.23-26.05 416.48-28.43 410.73-30.8 403.43-30.8L403.43-30.8Q398.13-30.8 395.06-29.35 391.98-27.9 391.98-25.2L391.98-25.2Q391.98-23.45 393.58-22.4 395.18-21.35 398.98-20.63 402.78-19.9 410.08-19.15L410.08-19.15ZM451.93-28.9Q449.98-28.9 448.75-29.75 447.53-30.6 447.53-31.9L447.53-31.9Q447.53-33.25 448.75-34.13 449.98-35 451.93-35L451.93-35Q453.93-35 455.1-34.15 456.28-33.3 456.28-31.9L456.28-31.9Q456.28-30.55 455.13-29.73 453.98-28.9 451.93-28.9L451.93-28.9ZM454.93-3.95L465.08-3.95 465.08 0 439.53 0 439.53-3.95 450.03-3.95 450.03-19.6 439.53-19.6 439.53-23.55 454.93-23.55 454.93-3.95ZM506.73-24.2Q511.48-24.2 515.13-22.85 518.78-21.5 520.8-18.9 522.83-16.3 522.83-12.65L522.83-12.65Q522.83-8.6 520.2-5.58 517.58-2.55 513.15-0.93 508.73 0.7 503.43 0.7L503.43 0.7Q493.63 0.7 484.28-3.45L484.28-3.45 484.28 6.95 494.73 6.95 494.73 10.9 468.93 10.9 468.93 6.95 479.38 6.95 479.38-19.6 468.93-19.6 468.93-23.55 484.28-23.55 484.28-16.2Q490.08-20 495.48-22.1 500.88-24.2 506.73-24.2L506.73-24.2ZM502.88-3.45Q507.13-3.4 510.5-4.53 513.88-5.65 515.78-7.7 517.68-9.75 517.68-12.4L517.68-12.4Q517.68-15.95 514.6-17.98 511.53-20 505.98-20L505.98-20Q501.23-20 495.6-18.05 489.98-16.1 484.28-12.6L484.28-12.6 484.28-6.9Q488.53-5.3 493.4-4.35 498.28-3.4 502.88-3.45L502.88-3.45Z" opacity="1" transform="matrix(1,0,0,1,0,0)" fill="#000000" class="wordmark-text-0" data-fill-palette-color="primary" id="text-0"></path></svg></g></svg></g><g transform="matrix(1,0,0,1,0,43.241504152554185)"><svg viewBox="0 0 395.52 21.619422726659597" height="21.619422726659597" width="395.52"><g transform="matrix(1,0,0,1,0,0)"><svg width="395.52" viewBox="3.03 -40.43 922.0125 50.43" height="21.619422726659597" data-palette-color="#000000"><path d="M18.88 0L14.75 0 11.08-15.3 9.78-15.3 9.78-18.88 10.75-18.88Q12.55-18.88 13.29-19.49 14.03-20.1 14.05-21.6L14.05-21.6Q14.13-23.88 14.16-25.76 14.2-27.65 14.19-29.54 14.18-31.43 14.05-33.68L14.05-33.68Q13.98-35.2 13.26-35.81 12.55-36.43 10.8-36.43L10.8-36.43 9.65-36.43 9.65-40 10.8-40Q14.55-40 16.23-38.5 17.9-37 18.03-33.52L18.03-33.52Q18.13-31.18 18.14-29.23 18.15-27.28 18.14-25.49 18.13-23.7 18.03-21.75L18.03-21.75Q17.85-17.25 14.83-16L14.83-16 18.88 0ZM7 0L3.03 0 3.03-40 7-40 7 0ZM33.14-6.15L33.14-6.15Q33.09-7.95 33.05-10.19 33.02-12.43 33.02-14.83 33.02-17.23 33.04-19.54 33.07-21.85 33.14-23.8L33.14-23.8Q33.29-27 34.74-28.54 36.19-30.08 39.32-30.33L39.32-30.33 39.32-27.15Q38.17-26.93 37.68-26.21 37.19-25.5 37.17-24.3L37.17-24.3Q37.09-22 37.07-19.71 37.04-17.43 37.04-15.14 37.04-12.85 37.07-10.51 37.09-8.18 37.17-5.75L37.17-5.75Q37.19-4.4 37.72-3.73 38.24-3.05 39.32-2.85L39.32-2.85 39.32 0.33Q36.12 0.08 34.7-1.46 33.29-3 33.14-6.15ZM41.99 0.33L41.99 0.33 41.99-2.85Q43.02-3.08 43.48-3.76 43.94-4.45 43.99-5.78L43.99-5.78Q44.04-6.53 44.04-7.8 44.04-9.08 43.97-10.5L43.97-10.5 47.89-10.5Q47.97-9.65 47.98-8.3 47.99-6.95 47.94-6.15L47.94-6.15Q47.79-3 46.44-1.45 45.09 0.1 41.99 0.33ZM47.89-14.2L39.39-14.2 39.39-17.1 44.02-17.1Q44.07-18.55 44.07-20.04 44.07-21.53 44.05-22.68 44.04-23.83 43.99-24.3L43.99-24.3Q43.94-25.6 43.44-26.26 42.94-26.93 41.99-27.15L41.99-27.15 41.99-30.33Q45.07-30.08 46.44-28.53 47.82-26.98 47.94-23.93L47.94-23.93Q47.97-23.38 47.99-21.75 48.02-20.13 48-18.09 47.99-16.05 47.89-14.2L47.89-14.2ZM67.91-36L62.66-36 62.66-40 67.91-40 67.91-36ZM67.28 0L63.31 0 63.31-30 67.28-30 67.28 0ZM88.82 5.53L88.82 8.38Q85.85 8.22 84.27 7.19 82.7 6.15 82.47 4.25L82.47 4.25Q82.45 3.95 82.44 3.64 82.42 3.33 82.45 3L82.45 3Q82.52 1.63 83.49 0.81 84.45 0 85.77-0.23L85.77-0.23 85.77-0.93Q83.17-1.58 83.02-3.53L83.02-3.53Q82.97-3.88 83-4.05 83.02-4.23 83.02-4.5L83.02-4.5Q83.07-5.53 83.86-6.26 84.65-7 85.75-7.15L85.75-7.15 85.75-7.88Q84.27-8.58 83.55-10 82.82-11.43 82.7-13.68L82.7-13.68Q82.62-15.2 82.6-16.39 82.57-17.57 82.59-18.66 82.6-19.75 82.62-20.99 82.65-22.23 82.7-23.8L82.7-23.8Q82.87-26.98 84.3-28.53 85.72-30.08 88.82-30.33L88.82-30.33 88.82-27.15Q87.65-26.95 87.12-26.23 86.6-25.5 86.57-24.13L86.57-24.13Q86.52-22.58 86.5-20.63 86.47-18.68 86.49-16.75 86.5-14.83 86.57-13.3L86.57-13.3Q86.62-11.93 87.21-11.23 87.8-10.53 88.87-10.3L88.87-10.3 88.87-7.08Q87.5-6.98 86.9-6.5 86.3-6.03 86.3-5.23L86.3-5.23Q86.3-5.18 86.3-5.1 86.3-5.03 86.3-4.95L86.3-4.95Q86.3-4.2 86.87-3.8 87.45-3.4 88.82-3.28L88.82-3.28 88.82-0.4Q87.35-0.33 86.45 0.21 85.55 0.75 85.47 2.05L85.47 2.05Q85.42 2.3 85.42 2.59 85.42 2.88 85.47 3.18L85.47 3.18Q85.57 4.4 86.45 4.91 87.32 5.43 88.82 5.53L88.82 5.53ZM91.47 8.38L91.47 8.38 91.47 5.55Q93.07 5.43 94.09 4.9 95.1 4.38 95.25 3.08L95.25 3.08Q95.32 2.8 95.31 2.51 95.3 2.23 95.22 1.93L95.22 1.93Q95.07 0.65 94.06 0.2 93.05-0.25 91.47-0.38L91.47-0.38 91.47-3.15Q94.85-2.9 96.65-1.78 98.45-0.65 98.62 1.88L98.62 1.88Q98.67 2.15 98.69 2.55 98.7 2.95 98.62 3.35L98.62 3.35Q98.45 6 96.45 7.1 94.45 8.2 91.47 8.38ZM91.47-7.15L91.47-7.15 91.47-10.3Q92.5-10.55 93.04-11.23 93.57-11.9 93.65-13.3L93.65-13.3Q93.72-14.88 93.74-16.76 93.75-18.65 93.72-20.59 93.7-22.53 93.62-24.25L93.62-24.25Q93.55-25.58 93.07-26.26 92.6-26.95 91.47-27.15L91.47-27.15 91.47-30.33Q95.47-30.03 96.7-27.38L96.7-27.38 97.42-27.38Q97.52-28.63 98.42-29.31 99.32-30 100.77-30L100.77-30 100.77-26.9 100.25-26.9Q99-26.9 98.29-26.04 97.57-25.18 97.57-23.33L97.57-23.33 97.57-22.05Q97.62-20.4 97.62-19.11 97.62-17.82 97.61-16.56 97.6-15.3 97.52-13.68L97.52-13.68Q97.35-10.5 95.96-8.95 94.57-7.4 91.47-7.15ZM118.17 0L114.17 0 114.17-30 118.17-30 118.17 0ZM129.57 0L125.59 0 125.59-24.35Q125.57-25.95 124.87-26.65 124.17-27.35 122.64-27.35L122.64-27.35Q122.14-27.35 121.69-27.25 121.24-27.15 120.84-26.98L120.84-26.98 120.84-29.4Q121.47-29.88 122.27-30.13 123.07-30.38 124.09-30.38L124.09-30.38Q126.87-30.38 128.2-28.88 129.54-27.38 129.57-24.05L129.57-24.05 129.57 0ZM150.11-36L144.86-36 144.86-40 150.11-40 150.11-36ZM149.48 0L145.51 0 145.51-30 149.48-30 149.48 0ZM169.57 0L165.57 0 165.57-30 169.57-30 169.57 0ZM180.97 0L177 0 177-24.35Q176.97-25.95 176.27-26.65 175.57-27.35 174.05-27.35L174.05-27.35Q173.55-27.35 173.1-27.25 172.65-27.15 172.25-26.98L172.25-26.98 172.25-29.4Q172.87-29.88 173.67-30.13 174.47-30.38 175.5-30.38L175.5-30.38Q178.27-30.38 179.61-28.88 180.95-27.38 180.97-24.05L180.97-24.05 180.97 0ZM202.34 5.53L202.34 8.38Q199.37 8.22 197.79 7.19 196.22 6.15 195.99 4.25L195.99 4.25Q195.97 3.95 195.95 3.64 195.94 3.33 195.97 3L195.97 3Q196.04 1.63 197 0.81 197.97 0 199.29-0.23L199.29-0.23 199.29-0.93Q196.69-1.58 196.54-3.53L196.54-3.53Q196.49-3.88 196.52-4.05 196.54-4.23 196.54-4.5L196.54-4.5Q196.59-5.53 197.38-6.26 198.17-7 199.27-7.15L199.27-7.15 199.27-7.88Q197.79-8.58 197.07-10 196.34-11.43 196.22-13.68L196.22-13.68Q196.14-15.2 196.12-16.39 196.09-17.57 196.1-18.66 196.12-19.75 196.14-20.99 196.17-22.23 196.22-23.8L196.22-23.8Q196.39-26.98 197.82-28.53 199.24-30.08 202.34-30.33L202.34-30.33 202.34-27.15Q201.17-26.95 200.64-26.23 200.12-25.5 200.09-24.13L200.09-24.13Q200.04-22.58 200.02-20.63 199.99-18.68 200-16.75 200.02-14.83 200.09-13.3L200.09-13.3Q200.14-11.93 200.73-11.23 201.32-10.53 202.39-10.3L202.39-10.3 202.39-7.08Q201.02-6.98 200.42-6.5 199.82-6.03 199.82-5.23L199.82-5.23Q199.82-5.18 199.82-5.1 199.82-5.03 199.82-4.95L199.82-4.95Q199.82-4.2 200.39-3.8 200.97-3.4 202.34-3.28L202.34-3.28 202.34-0.4Q200.87-0.33 199.97 0.21 199.07 0.75 198.99 2.05L198.99 2.05Q198.94 2.3 198.94 2.59 198.94 2.88 198.99 3.18L198.99 3.18Q199.09 4.4 199.97 4.91 200.84 5.43 202.34 5.53L202.34 5.53ZM204.99 8.38L204.99 8.38 204.99 5.55Q206.59 5.43 207.6 4.9 208.62 4.38 208.77 3.08L208.77 3.08Q208.84 2.8 208.83 2.51 208.82 2.23 208.74 1.93L208.74 1.93Q208.59 0.65 207.58 0.2 206.57-0.25 204.99-0.38L204.99-0.38 204.99-3.15Q208.37-2.9 210.17-1.78 211.97-0.65 212.14 1.88L212.14 1.88Q212.19 2.15 212.2 2.55 212.22 2.95 212.14 3.35L212.14 3.35Q211.97 6 209.97 7.1 207.97 8.2 204.99 8.38ZM204.99-7.15L204.99-7.15 204.99-10.3Q206.02-10.55 206.55-11.23 207.09-11.9 207.17-13.3L207.17-13.3Q207.24-14.88 207.25-16.76 207.27-18.65 207.24-20.59 207.22-22.53 207.14-24.25L207.14-24.25Q207.07-25.58 206.59-26.26 206.12-26.95 204.99-27.15L204.99-27.15 204.99-30.33Q208.99-30.03 210.22-27.38L210.22-27.38 210.94-27.38Q211.04-28.63 211.94-29.31 212.84-30 214.29-30L214.29-30 214.29-26.9 213.77-26.9Q212.52-26.9 211.8-26.04 211.09-25.18 211.09-23.33L211.09-23.33 211.09-22.05Q211.14-20.4 211.14-19.11 211.14-17.82 211.13-16.56 211.12-15.3 211.04-13.68L211.04-13.68Q210.87-10.5 209.48-8.95 208.09-7.4 204.99-7.15ZM254.5-3.18L254.5 0.3Q251.22 0.05 249.72-1.56 248.22-3.18 248.12-6.58L248.12-6.58Q248.1-8 248.09-9.24 248.07-10.48 248.1-11.74 248.12-13 248.17-14.48L248.17-14.48 252-14.48Q251.9-12.25 251.89-10.21 251.87-8.18 252-6.08L252-6.08Q252.05-4.7 252.61-4.03 253.17-3.35 254.5-3.18L254.5-3.18ZM257.17 0.3L257.17 0.3 257.17-3.18Q258.4-3.38 258.92-4.04 259.45-4.7 259.55-6.08L259.55-6.08Q259.65-7.15 259.66-8.41 259.67-9.68 259.64-10.93 259.6-12.18 259.55-13.28L259.55-13.28Q259.5-15.28 258.75-16.28 258-17.28 256.3-17.7L256.3-17.7 253.52-18.38Q251.47-18.88 250.3-19.84 249.12-20.8 248.62-22.43 248.12-24.05 248.05-26.55L248.05-26.55Q248.02-28.18 248.04-29.94 248.05-31.7 248.07-33.5L248.07-33.5Q248.17-36.88 249.67-38.48 251.17-40.08 254.5-40.3L254.5-40.3 254.5-36.83Q253.22-36.65 252.66-35.99 252.1-35.33 252.05-33.95L252.05-33.95Q251.95-32.05 251.95-30.28 251.95-28.5 252.05-26.55L252.05-26.55Q252.1-24.4 252.65-23.39 253.2-22.38 254.55-22.05L254.55-22.05 257.17-21.45Q259.52-20.9 260.89-19.93 262.25-18.95 262.86-17.32 263.47-15.7 263.55-13.28L263.55-13.28Q263.6-12.23 263.6-11.06 263.6-9.9 263.57-8.75 263.55-7.6 263.52-6.58L263.52-6.58Q263.37-3.18 261.9-1.55 260.42 0.08 257.17 0.3ZM263.32-26.13L259.47-26.13Q259.55-28.43 259.56-30.3 259.57-32.18 259.5-33.95L259.5-33.95Q259.45-35.3 258.92-35.98 258.4-36.65 257.17-36.85L257.17-36.85 257.17-40.3Q260.35-40.05 261.8-38.45 263.25-36.85 263.37-33.45L263.37-33.45Q263.42-31.9 263.4-30.04 263.37-28.18 263.32-26.13L263.32-26.13ZM278.67-6L278.67-6 278.67-30 282.69-30 282.72-5.68Q282.72-4.08 283.38-3.38 284.04-2.68 285.54-2.68L285.54-2.68Q286.57-2.68 287.34-3.05L287.34-3.05 287.34-0.5Q286.02 0.38 284.24 0.38L284.24 0.38Q281.52 0.38 280.09-1.13 278.67-2.63 278.67-6ZM294.02 0L289.99 0 289.99-30 294.02-30 294.02 0ZM314.16 10L310.11 10 310.11-30 314.16-30 314.16 10ZM316.81-0.43L316.81-2.93Q317.13-2.78 317.53-2.73 317.93-2.68 318.38-2.68L318.38-2.68Q319.88-2.68 320.63-3.38 321.38-4.08 321.43-5.68L321.43-5.68Q321.56-8.78 321.6-11.21 321.63-13.65 321.62-15.76 321.61-17.88 321.56-19.96 321.51-22.05 321.43-24.43L321.43-24.43Q321.38-25.98 320.73-26.66 320.08-27.35 318.56-27.35L318.56-27.35Q317.58-27.35 316.81-27.03L316.81-27.03 316.81-29.6Q317.41-29.98 318.15-30.18 318.88-30.38 319.91-30.38L319.91-30.38Q322.61-30.38 323.98-28.9 325.36-27.43 325.46-24.05L325.46-24.05Q325.51-22.53 325.55-20.11 325.58-17.7 325.58-15.03 325.58-12.35 325.55-9.94 325.51-7.53 325.46-5.95L325.46-5.95Q325.36-2.6 323.9-1.11 322.43 0.38 319.73 0.38L319.73 0.38Q317.93 0.38 316.81-0.43L316.81-0.43ZM345.15 0L341.07 0 341.07-30 345.15-30 345.15 0ZM347.8-26.53L347.8-26.53 347.8-29.58Q348.85-30.13 350.45-30.13L350.45-30.13Q350.92-30.13 351.39-30.09 351.85-30.05 352.32-29.98L352.32-29.98 352.32-26.9 350.5-26.9Q348.87-26.9 347.8-26.53ZM365.24-6.15L365.24-6.15Q365.19-7.95 365.15-10.19 365.12-12.43 365.12-14.83 365.12-17.23 365.14-19.54 365.17-21.85 365.24-23.8L365.24-23.8Q365.39-27 366.84-28.54 368.29-30.08 371.42-30.33L371.42-30.33 371.42-27.15Q370.27-26.93 369.78-26.21 369.29-25.5 369.27-24.3L369.27-24.3Q369.19-22 369.17-19.71 369.14-17.43 369.14-15.14 369.14-12.85 369.17-10.51 369.19-8.18 369.27-5.75L369.27-5.75Q369.29-4.4 369.82-3.73 370.34-3.05 371.42-2.85L371.42-2.85 371.42 0.33Q368.22 0.08 366.8-1.46 365.39-3 365.24-6.15ZM374.09 0.33L374.09 0.33 374.09-2.85Q375.12-3.08 375.58-3.76 376.04-4.45 376.09-5.78L376.09-5.78Q376.14-6.53 376.14-7.8 376.14-9.08 376.07-10.5L376.07-10.5 379.99-10.5Q380.07-9.65 380.08-8.3 380.09-6.95 380.04-6.15L380.04-6.15Q379.89-3 378.54-1.45 377.19 0.1 374.09 0.33ZM379.99-14.2L371.49-14.2 371.49-17.1 376.12-17.1Q376.17-18.55 376.17-20.04 376.17-21.53 376.15-22.68 376.14-23.83 376.09-24.3L376.09-24.3Q376.04-25.6 375.54-26.26 375.04-26.93 374.09-27.15L374.09-27.15 374.09-30.33Q377.17-30.08 378.54-28.53 379.92-26.98 380.04-23.93L380.04-23.93Q380.07-23.38 380.09-21.75 380.12-20.13 380.1-18.09 380.09-16.05 379.99-14.2L379.99-14.2ZM399.38 0L395.38 0 395.38-30 399.38-30 399.38 0ZM421.08 0L417.08 0 417.08-24.35Q417.08-25.95 416.4-26.65 415.71-27.35 414.33-27.35L414.33-27.35Q413.51-27.35 412.91-27.08L412.91-27.08 412.91-29.65Q413.51-30 414.23-30.19 414.96-30.38 415.83-30.38L415.83-30.38Q418.43-30.38 419.75-28.9 421.06-27.43 421.08-24.05L421.08-24.05 421.08 0ZM410.31 0L406.31 0 406.31-24.35Q406.28-25.95 405.62-26.65 404.96-27.35 403.56-27.35L403.56-27.35Q403.13-27.35 402.72-27.28 402.31-27.2 401.98-27.05L401.98-27.05 401.98-29.55Q402.56-29.98 403.3-30.18 404.03-30.38 405.01-30.38L405.01-30.38Q407.61-30.38 408.95-28.9 410.28-27.43 410.31-24.05L410.31-24.05 410.31 0ZM436.57-6.15L436.57-6.15Q436.52-7.95 436.49-10.19 436.45-12.43 436.45-14.83 436.45-17.23 436.47-19.54 436.5-21.85 436.57-23.8L436.57-23.8Q436.72-27 438.17-28.54 439.62-30.08 442.75-30.33L442.75-30.33 442.75-27.15Q441.6-26.93 441.11-26.21 440.62-25.5 440.6-24.3L440.6-24.3Q440.52-22 440.5-19.71 440.47-17.43 440.47-15.14 440.47-12.85 440.5-10.51 440.52-8.18 440.6-5.75L440.6-5.75Q440.62-4.4 441.15-3.73 441.67-3.05 442.75-2.85L442.75-2.85 442.75 0.33Q439.55 0.08 438.14-1.46 436.72-3 436.57-6.15ZM445.42 0.33L445.42 0.33 445.42-2.85Q446.45-3.08 446.91-3.76 447.37-4.45 447.42-5.78L447.42-5.78Q447.47-6.53 447.47-7.8 447.47-9.08 447.4-10.5L447.4-10.5 451.32-10.5Q451.4-9.65 451.41-8.3 451.42-6.95 451.37-6.15L451.37-6.15Q451.22-3 449.87-1.45 448.52 0.1 445.42 0.33ZM451.32-14.2L442.82-14.2 442.82-17.1 447.45-17.1Q447.5-18.55 447.5-20.04 447.5-21.53 447.49-22.68 447.47-23.83 447.42-24.3L447.42-24.3Q447.37-25.6 446.87-26.26 446.37-26.93 445.42-27.15L445.42-27.15 445.42-30.33Q448.5-30.08 449.87-28.53 451.25-26.98 451.37-23.93L451.37-23.93Q451.4-23.38 451.42-21.75 451.45-20.13 451.44-18.09 451.42-16.05 451.32-14.2L451.32-14.2ZM492.21-36L486.96-36 486.96-40 492.21-40 492.21-36ZM491.58 0L487.61 0 487.61-30 491.58-30 491.58 0ZM511.67 0L507.67 0 507.67-30 511.67-30 511.67 0ZM523.07 0L519.1 0 519.1-24.35Q519.07-25.95 518.37-26.65 517.67-27.35 516.15-27.35L516.15-27.35Q515.65-27.35 515.2-27.25 514.75-27.15 514.35-26.98L514.35-26.98 514.35-29.4Q514.97-29.88 515.77-30.13 516.57-30.38 517.6-30.38L517.6-30.38Q520.37-30.38 521.71-28.88 523.05-27.38 523.07-24.05L523.07-24.05 523.07 0ZM566.38-3.13L566.38 0.35Q563.03 0.13 561.46-1.49 559.88-3.1 559.83-6.53L559.83-6.53Q559.78-10.2 559.76-13.51 559.73-16.82 559.73-20 559.73-23.18 559.76-26.48 559.78-29.78 559.83-33.45L559.83-33.45Q559.88-36.8 561.47-38.43 563.06-40.05 566.38-40.28L566.38-40.28 566.38-36.83Q565.01-36.63 564.42-35.9 563.83-35.18 563.78-33.58L563.78-33.58Q563.71-29.65 563.66-26.36 563.61-23.08 563.61-19.99 563.61-16.9 563.66-13.61 563.71-10.33 563.78-6.38L563.78-6.38Q563.83-4.8 564.42-4.06 565.01-3.33 566.38-3.13L566.38-3.13ZM569.06 0.33L569.06 0.33 569.06-3.15Q570.43-3.35 571.02-4.1 571.61-4.85 571.68-6.38L571.68-6.38Q571.73-7.53 571.73-8.64 571.73-9.75 571.71-11.14 571.68-12.53 571.63-14.43L571.63-14.43 575.61-14.43Q575.71-12.03 575.72-10.19 575.73-8.35 575.66-6.53L575.66-6.53Q575.51-3.15 573.96-1.54 572.41 0.08 569.06 0.33ZM575.41-26.1L571.46-26.1Q571.51-27.45 571.52-28.65 571.53-29.85 571.53-31.05 571.53-32.25 571.48-33.58L571.48-33.58Q571.43-35.08 570.87-35.81 570.31-36.55 569.06-36.8L569.06-36.8 569.06-40.23Q572.23-39.98 573.77-38.33 575.31-36.68 575.46-33.45L575.46-33.45Q575.51-32.15 575.52-30.96 575.53-29.78 575.51-28.6 575.48-27.43 575.41-26.1L575.41-26.1ZM590.85-6.65L590.85-6.65Q590.77-8.18 590.74-10.26 590.7-12.35 590.7-14.65 590.7-16.95 590.74-19.21 590.77-21.48 590.85-23.33L590.85-23.33Q591.02-26.83 592.41-28.46 593.8-30.1 597.1-30.33L597.1-30.33 597.1-27.15Q595.87-26.93 595.36-26.21 594.85-25.5 594.8-24.13L594.8-24.13Q594.72-22.13 594.67-19.9 594.62-17.68 594.62-15.33 594.62-12.98 594.66-10.59 594.7-8.2 594.8-5.9L594.8-5.9Q594.85-4.53 595.37-3.79 595.9-3.05 597.1-2.83L597.1-2.83 597.1 0.33Q593.8 0.08 592.39-1.58 590.97-3.23 590.85-6.65ZM599.75 0.33L599.75 0.33 599.75-2.83Q600.95-3.08 601.45-3.8 601.95-4.53 602-5.83L602-5.83Q602.07-8.1 602.12-10.36 602.17-12.63 602.19-14.91 602.2-17.2 602.15-19.53 602.1-21.85 602-24.2L602-24.2Q601.95-25.55 601.44-26.25 600.92-26.95 599.75-27.18L599.75-27.18 599.75-30.33Q601.97-30.18 603.3-29.39 604.62-28.6 605.25-27.11 605.87-25.63 605.97-23.33L605.97-23.33Q606.05-21.63 606.09-19.53 606.12-17.43 606.12-15.19 606.12-12.95 606.09-10.75 606.05-8.55 605.97-6.65L605.97-6.65Q605.85-4.35 605.24-2.88 604.62-1.4 603.3-0.61 601.97 0.18 599.75 0.33ZM622.34-26.9L619.72-26.9 619.72-30 622.34-30 622.34-33.9Q622.34-37.4 624.08-38.91 625.82-40.43 629.62-40.43L629.62-40.43Q630.37-40.43 631.34-40.34 632.32-40.25 633.12-40.13L633.12-40.13 633.12-37.1Q632.39-37.15 631.53-37.2 630.67-37.25 629.69-37.25L629.69-37.25Q627.99-37.25 627.17-36.6 626.34-35.95 626.34-34.18L626.34-34.18 626.39 0 622.39 0 622.34-26.9ZM632.19-26.9L628.42-26.9 628.42-30 632.19-30 632.19-26.9ZM645.11-26.9L642.48-26.9 642.48-30 645.11-30 645.11-33.9Q645.11-37.4 646.84-38.91 648.58-40.43 652.38-40.43L652.38-40.43Q653.13-40.43 654.11-40.34 655.08-40.25 655.88-40.13L655.88-40.13 655.88-37.1Q655.16-37.15 654.29-37.2 653.43-37.25 652.46-37.25L652.46-37.25Q650.76-37.25 649.93-36.6 649.11-35.95 649.11-34.18L649.11-34.18 649.16 0 645.16 0 645.11-26.9ZM654.96-26.9L651.18-26.9 651.18-30 654.96-30 654.96-26.9ZM667.55-6.15L667.55-6.15Q667.5-7.95 667.46-10.19 667.42-12.43 667.42-14.83 667.42-17.23 667.45-19.54 667.47-21.85 667.55-23.8L667.55-23.8Q667.7-27 669.15-28.54 670.6-30.08 673.72-30.33L673.72-30.33 673.72-27.15Q672.57-26.93 672.09-26.21 671.6-25.5 671.57-24.3L671.57-24.3Q671.5-22 671.47-19.71 671.45-17.43 671.45-15.14 671.45-12.85 671.47-10.51 671.5-8.18 671.57-5.75L671.57-5.75Q671.6-4.4 672.12-3.73 672.65-3.05 673.72-2.85L673.72-2.85 673.72 0.33Q670.52 0.08 669.11-1.46 667.7-3 667.55-6.15ZM676.4 0.33L676.4 0.33 676.4-2.85Q677.42-3.08 677.89-3.76 678.35-4.45 678.4-5.78L678.4-5.78Q678.45-6.53 678.45-7.8 678.45-9.08 678.37-10.5L678.37-10.5 682.3-10.5Q682.37-9.65 682.39-8.3 682.4-6.95 682.35-6.15L682.35-6.15Q682.2-3 680.85-1.45 679.5 0.1 676.4 0.33ZM682.3-14.2L673.8-14.2 673.8-17.1 678.42-17.1Q678.47-18.55 678.47-20.04 678.47-21.53 678.46-22.68 678.45-23.83 678.4-24.3L678.4-24.3Q678.35-25.6 677.85-26.26 677.35-26.93 676.4-27.15L676.4-27.15 676.4-30.33Q679.47-30.08 680.85-28.53 682.22-26.98 682.35-23.93L682.35-23.93Q682.37-23.38 682.4-21.75 682.42-20.13 682.41-18.09 682.4-16.05 682.3-14.2L682.3-14.2ZM697.27-6.15L697.27-6.15Q697.22-7.95 697.18-10.19 697.14-12.43 697.14-14.83 697.14-17.23 697.17-19.54 697.19-21.85 697.27-23.8L697.27-23.8Q697.42-27 698.87-28.54 700.32-30.08 703.44-30.33L703.44-30.33 703.44-27.15Q702.29-26.93 701.8-26.21 701.32-25.5 701.29-24.3L701.29-24.3Q701.22-22 701.19-19.71 701.17-17.43 701.17-15.14 701.17-12.85 701.19-10.51 701.22-8.18 701.29-5.75L701.29-5.75Q701.32-4.4 701.84-3.73 702.37-3.05 703.44-2.85L703.44-2.85 703.44 0.33Q700.24 0.08 698.83-1.46 697.42-3 697.27-6.15ZM706.12 0.33L706.12 0.33 706.12-2.85Q707.14-3.08 707.6-3.76 708.07-4.45 708.12-5.78L708.12-5.78Q708.17-6.53 708.17-7.8 708.17-9.08 708.09-10.5L708.09-10.5 712.02-10.5Q712.09-9.65 712.1-8.3 712.12-6.95 712.07-6.15L712.07-6.15Q711.92-3 710.57-1.45 709.22 0.1 706.12 0.33ZM712.02-14.2L703.52-14.2 703.52-17.1 708.14-17.1Q708.19-18.55 708.19-20.04 708.19-21.53 708.18-22.68 708.17-23.83 708.12-24.3L708.12-24.3Q708.07-25.6 707.57-26.26 707.07-26.93 706.12-27.15L706.12-27.15 706.12-30.33Q709.19-30.08 710.57-28.53 711.94-26.98 712.07-23.93L712.07-23.93Q712.09-23.38 712.12-21.75 712.14-20.13 712.13-18.09 712.12-16.05 712.02-14.2L712.02-14.2ZM754.8-3.13L754.8 0.35Q751.45 0.13 749.87-1.49 748.3-3.1 748.25-6.53L748.25-6.53Q748.2-10.2 748.17-13.51 748.15-16.82 748.15-20 748.15-23.18 748.17-26.48 748.2-29.78 748.25-33.45L748.25-33.45Q748.3-36.8 749.89-38.43 751.47-40.05 754.8-40.28L754.8-40.28 754.8-36.83Q753.42-36.63 752.84-35.9 752.25-35.18 752.2-33.58L752.2-33.58Q752.12-29.65 752.07-26.36 752.02-23.08 752.02-19.99 752.02-16.9 752.07-13.61 752.12-10.33 752.2-6.38L752.2-6.38Q752.25-4.8 752.84-4.06 753.42-3.33 754.8-3.13L754.8-3.13ZM757.47 0.33L757.47 0.33 757.47-3.15Q758.85-3.35 759.44-4.1 760.02-4.85 760.1-6.38L760.1-6.38Q760.15-7.53 760.15-8.64 760.15-9.75 760.12-11.14 760.1-12.53 760.05-14.43L760.05-14.43 764.02-14.43Q764.12-12.03 764.14-10.19 764.15-8.35 764.07-6.53L764.07-6.53Q763.92-3.15 762.37-1.54 760.82 0.08 757.47 0.33ZM763.82-26.1L759.87-26.1Q759.92-27.45 759.94-28.65 759.95-29.85 759.95-31.05 759.95-32.25 759.9-33.58L759.9-33.58Q759.85-35.08 759.29-35.81 758.72-36.55 757.47-36.8L757.47-36.8 757.47-40.23Q760.65-39.98 762.19-38.33 763.72-36.68 763.87-33.45L763.87-33.45Q763.92-32.15 763.94-30.96 763.95-29.78 763.92-28.6 763.9-27.43 763.82-26.1L763.82-26.1ZM779.22-6L779.22-6 779.22-30 783.24-30 783.27-5.68Q783.27-4.08 783.93-3.38 784.59-2.68 786.09-2.68L786.09-2.68Q787.12-2.68 787.89-3.05L787.89-3.05 787.89-0.5Q786.57 0.38 784.79 0.38L784.79 0.38Q782.07 0.38 780.64-1.13 779.22-2.63 779.22-6ZM794.57 0L790.54 0 790.54-30 794.57-30 794.57 0ZM814.63 0L810.66 0 810.66-40 814.63-40 814.63 0ZM831.05-26.9L828.65-26.9 828.65-30 831.05-30 831.05-38.5 835.05-38.5 835.05-5.78Q835.05-3.98 835.71-3.34 836.37-2.7 838.37-2.7L838.37-2.7Q839.15-2.7 839.69-2.74 840.22-2.78 840.92-2.85L840.92-2.85 840.92 0.13Q840.32 0.25 839.69 0.31 839.05 0.38 838.32 0.38L838.32 0.38Q834.3 0.38 832.67-1.13 831.05-2.63 831.05-6.23L831.05-6.23 831.05-26.9ZM840.35-26.9L836.95-26.9 836.95-30 840.35-30 840.35-26.9ZM854.56-6L854.56-6 854.56-30 858.59-30 858.61-5.68Q858.61-4.08 859.28-3.38 859.94-2.68 861.44-2.68L861.44-2.68Q862.46-2.68 863.24-3.05L863.24-3.05 863.24-0.5Q861.91 0.38 860.14 0.38L860.14 0.38Q857.41 0.38 855.99-1.13 854.56-2.63 854.56-6ZM869.91 0L865.89 0 865.89-30 869.91-30 869.91 0ZM890.08 0L886.01 0 886.01-30 890.08-30 890.08 0ZM892.73-26.53L892.73-26.53 892.73-29.58Q893.78-30.13 895.38-30.13L895.38-30.13Q895.86-30.13 896.32-30.09 896.78-30.05 897.26-29.98L897.26-29.98 897.26-26.9 895.43-26.9Q893.81-26.9 892.73-26.53ZM910.17-6.15L910.17-6.15Q910.12-7.95 910.09-10.19 910.05-12.43 910.05-14.83 910.05-17.23 910.07-19.54 910.1-21.85 910.17-23.8L910.17-23.8Q910.32-27 911.77-28.54 913.22-30.08 916.35-30.33L916.35-30.33 916.35-27.15Q915.2-26.93 914.71-26.21 914.22-25.5 914.2-24.3L914.2-24.3Q914.12-22 914.1-19.71 914.07-17.43 914.07-15.14 914.07-12.85 914.1-10.51 914.12-8.18 914.2-5.75L914.2-5.75Q914.22-4.4 914.75-3.73 915.27-3.05 916.35-2.85L916.35-2.85 916.35 0.33Q913.15 0.08 911.74-1.46 910.32-3 910.17-6.15ZM919.02 0.33L919.02 0.33 919.02-2.85Q920.05-3.08 920.51-3.76 920.97-4.45 921.02-5.78L921.02-5.78Q921.07-6.53 921.07-7.8 921.07-9.08 921-10.5L921-10.5 924.92-10.5Q925-9.65 925.01-8.3 925.02-6.95 924.97-6.15L924.97-6.15Q924.82-3 923.47-1.45 922.12 0.1 919.02 0.33ZM924.92-14.2L916.42-14.2 916.42-17.1 921.05-17.1Q921.1-18.55 921.1-20.04 921.1-21.53 921.09-22.68 921.07-23.83 921.02-24.3L921.02-24.3Q920.97-25.6 920.47-26.26 919.97-26.93 919.02-27.15L919.02-27.15 919.02-30.33Q922.1-30.08 923.47-28.53 924.85-26.98 924.97-23.93L924.97-23.93Q925-23.38 925.02-21.75 925.05-20.13 925.04-18.09 925.02-16.05 924.92-14.2L924.92-14.2Z" opacity="1" transform="matrix(1,0,0,1,0,0)" fill="#000000" class="slogan-text-1" data-fill-palette-color="secondary" id="text-1"></path></svg></g></svg></g></svg></g></svg></g><g transform="matrix(1,0,0,1,153.837477535934,0)"><svg viewBox="0 0 87.84504492813198 87.845044928132" height="87.845044928132" width="87.84504492813198"><g><svg></svg></g><g id="icon-0"><svg viewBox="0 0 87.84504492813198 87.845044928132" height="87.845044928132" width="87.84504492813198"><g><path transform="scale(0.87845,0.87845)" d="M30 100c-16.569 0-30-13.431-30-30v-40c0-16.569 13.431-30 30-30h40c16.569 0 30 13.431 30 30v40c0 16.569-13.431 30-30 30z" fill="#000000" fill-rule="nonzero" stroke="none" stroke-width="1" stroke-linecap="butt" stroke-linejoin="miter" stroke-miterlimit="10" stroke-dasharray="" stroke-dashoffset="0" font-family="none" font-weight="none" font-size="none" text-anchor="none" style="mix-blend-mode: normal" data-fill-palette-color="accent"></path></g><g transform="matrix(1,0,0,1,17.569008985626393,23.424158247039333)"><svg viewBox="0 0 52.7070269568792 40.99672843405333" height="40.99672843405333" width="52.7070269568792"><g><svg xmlns="http://www.w3.org/2000/svg" xmlns:xlink="http://www.w3.org/1999/xlink" version="1.1" x="0" y="0" viewBox="0.664 9.656 98.66899999999998 76.74699999999999" enable-background="new 0 0 100 100" xml:space="preserve" height="40.99672843405333" width="52.7070269568792" class="icon-cg-0" data-fill-palette-color="quaternary" id="cg-0"><g fill="#ffffff" data-fill-palette-color="quaternary"><g fill="#ffffff" data-fill-palette-color="quaternary"><path d="M75.508 78.368c-1.392 0.636-3.186 1.204-5.395 1.714-5.289 1.215-12.296 1.883-19.74 1.883-7.441 0-14.453-0.668-19.74-1.883-2.209-0.51-4.001-1.078-5.395-1.714-0.277-0.056-0.534-0.114-0.77-0.172-0.225 0.22-0.342 0.43-0.342 0.618 0 1.717 9.262 5.054 26.246 5.054 16.983 0 26.246-3.337 26.246-5.054 0-0.188-0.118-0.398-0.342-0.618C76.043 78.254 75.787 78.312 75.508 78.368z" fill="#ffffff" data-fill-palette-color="quaternary"></path><path d="M14.844 44.397c1.522 0.874 3.031 1.779 4.451 2.609 0.635 0.382 1.248 0.749 1.836 1.104 0.381-0.637 0.851-1.258 1.393-1.857-0.327-0.203-0.67-0.416-1.043-0.646-1.117-0.697-2.424-1.512-3.818-2.382-1.389-0.891-2.875-1.822-4.347-2.78-1.47-0.966-2.948-1.912-4.311-2.839-1.374-0.913-2.644-1.779-3.729-2.532-0.394-0.268-0.749-0.517-1.087-0.756l3.434 6.018c0.854 0.465 1.771 0.971 2.733 1.512C11.801 42.642 13.315 43.527 14.844 44.397z" fill="#ffffff" data-fill-palette-color="quaternary"></path><path d="M9.892 36.157c1.442 0.797 2.959 1.68 4.487 2.551 1.523 0.876 3.031 1.777 4.451 2.608 1.412 0.848 2.729 1.641 3.857 2.32 0.563 0.339 1.082 0.652 1.539 0.928 0.021 0.012 0.043 0.026 0.064 0.039 0.766-0.607 1.617-1.168 2.549-1.664L0.664 28.146l2.49 4.363c0.684 0.354 1.643 0.858 2.791 1.479C7.105 34.611 8.455 35.35 9.892 36.157z" fill="#ffffff" data-fill-palette-color="quaternary"></path><path d="M90.991 37.606c-1.363 0.927-2.844 1.873-4.31 2.839-1.473 0.958-2.96 1.89-4.348 2.78-1.398 0.87-2.699 1.685-3.817 2.382-0.375 0.23-0.716 0.443-1.044 0.646 0.541 0.6 1.014 1.221 1.391 1.857 0.589-0.355 1.202-0.723 1.837-1.104 1.422-0.83 2.927-1.735 4.453-2.609 1.528-0.87 3.044-1.756 4.485-2.55 0.963-0.541 1.879-1.047 2.734-1.512l3.436-6.018c-0.342 0.239-0.696 0.488-1.088 0.756C93.635 35.827 92.363 36.693 90.991 37.606z" fill="#ffffff" data-fill-palette-color="quaternary"></path><path d="M73.158 42.939c0.929 0.496 1.779 1.057 2.547 1.664 0.021-0.013 0.042-0.027 0.064-0.039 0.457-0.275 0.973-0.589 1.537-0.928 1.131-0.68 2.448-1.473 3.859-2.32 1.418-0.831 2.927-1.732 4.451-2.608 1.526-0.871 3.043-1.754 4.488-2.551 1.436-0.808 2.785-1.546 3.945-2.169 1.146-0.62 2.107-1.124 2.79-1.479l2.494-4.363L73.158 42.939z" fill="#ffffff" data-fill-palette-color="quaternary"></path><path d="M37.521 41.18c0.025-0.029 0.051-0.056 0.077-0.084 0.186-0.197 0.384-0.403 0.575-0.655 0.396-0.485 0.818-1.055 1.247-1.702 0.426-0.654 0.88-1.365 1.315-2.152 0.441-0.784 0.9-1.617 1.342-2.499 0.44-0.882 0.891-1.799 1.331-2.739 0.431-0.947 0.868-1.914 1.302-2.877 0.842-1.947 1.662-3.908 2.396-5.767 0.755-1.851 1.426-3.594 2.012-5.088 0.33-0.829 0.622-1.581 0.877-2.237 0.258 0.656 0.553 1.408 0.877 2.237 0.59 1.494 1.26 3.237 2.014 5.088 0.735 1.858 1.556 3.819 2.396 5.767 0.436 0.963 0.874 1.93 1.303 2.877 0.44 0.94 0.893 1.857 1.334 2.739 0.44 0.882 0.898 1.715 1.338 2.499 0.436 0.787 0.891 1.498 1.316 2.152 0.428 0.647 0.855 1.217 1.25 1.702 0.188 0.252 0.387 0.458 0.574 0.655 0.025 0.028 0.049 0.055 0.076 0.084 1.301-0.324 2.783-0.411 4.352-0.241l-0.162-0.188C60.943 36.189 49.996 9.656 49.996 9.656S39.052 36.189 33.331 40.75l-0.161 0.188C34.737 40.769 36.221 40.855 37.521 41.18z" fill="#ffffff" data-fill-palette-color="quaternary"></path><path d="M71.655 67.572c-5.716 0.938-13.31 1.451-21.377 1.451s-15.661-0.514-21.379-1.451c-3.494-0.573-5.717-1.317-7.122-1.94C21.902 66.314 22.043 67 22.18 68h0.041c0.227 2 10.06 3.916 28.058 3.916C68.274 71.916 78.107 70 78.334 68h0.231c0.145-1 0.292-1.763 0.424-2.46C77.596 66.192 75.327 66.969 71.655 67.572z" fill="#ffffff" data-fill-palette-color="quaternary"></path><path d="M21.967 73h0.254c0.227 1 10.06 3.914 28.058 3.914C68.274 76.914 78.107 74 78.334 73h0.441c-0.165 0-0.372-0.611-0.648-0.894 0.051-0.641 0.112-1.257 0.18-1.839-4.918 2.729-19.572 3.516-28.028 3.516-8.339 0-22.709-0.766-27.826-3.403 0.063 0.548 0.118 1.127 0.169 1.726C22.342 72.389 22.135 73 21.967 73z" fill="#ffffff" data-fill-palette-color="quaternary"></path><path d="M79.146 74.461c-3.803 3.186-19.855 4.078-28.868 4.078-8.861 0-24.526-0.865-28.664-3.924 0.058 0.709 0.366 1.369 0.944 1.983-0.643 0.681-0.967 1.417-0.967 2.216 0 2.443 2.957 4.309 9.041 5.705 5.287 1.215 12.299 1.884 19.74 1.884 7.443 0 14.451-0.669 19.74-1.884 6.084-1.396 9.043-3.262 9.043-5.705 0-0.799-0.324-1.535-0.968-2.216C78.807 75.939 79.127 75.229 79.146 74.461zM50.373 83.868c-16.984 0-26.246-3.337-26.246-5.054 0-0.188 0.117-0.398 0.342-0.618 0.235 0.058 0.492 0.116 0.77 0.172 1.394 0.636 3.186 1.204 5.395 1.714 5.287 1.215 12.299 1.883 19.74 1.883 7.444 0 14.451-0.668 19.74-1.883 2.209-0.51 4.003-1.078 5.395-1.714 0.279-0.056 0.535-0.114 0.77-0.172 0.224 0.22 0.342 0.43 0.342 0.618C76.619 80.531 67.356 83.868 50.373 83.868z" fill="#ffffff" data-fill-palette-color="quaternary"></path><path d="M90.902 43.295c-1.364 0.926-2.842 1.873-4.312 2.841-1.471 0.958-2.96 1.89-4.344 2.778-0.731 0.454-1.431 0.893-2.094 1.305 0.352 1.29 0.32 2.559-0.181 3.705-1.669 3.817-7.843 4.805-13.79 2.205-5.948-2.6-9.419-7.799-7.75-11.617 0.57-1.309 1.672-2.281 3.109-2.893-0.098-0.083-0.197-0.164-0.293-0.256-0.523-0.447-1.056-1.004-1.598-1.637-0.553-0.628-1.09-1.352-1.625-2.129-0.554-0.771-1.061-1.627-1.574-2.514-0.522-0.885-0.994-1.83-1.47-2.793-0.474-0.961-0.919-1.95-1.339-2.953-0.416-1.002-0.832-2-1.201-3.004-0.369-0.996-0.721-1.984-1.045-2.943-0.381-1.15-0.719-2.25-1.023-3.29-0.304 1.04-0.641 2.14-1.021 3.29-0.326 0.959-0.68 1.947-1.047 2.943-0.365 1.004-0.785 2.002-1.201 3.004-0.419 1.003-0.863 1.992-1.342 2.953-0.471 0.963-0.946 1.908-1.468 2.793-0.512 0.887-1.021 1.742-1.571 2.514-0.536 0.777-1.076 1.501-1.627 2.129-0.543 0.633-1.074 1.189-1.596 1.637-0.098 0.092-0.197 0.173-0.295 0.256 1.437 0.611 2.537 1.584 3.107 2.893 1.67 3.818-1.799 9.018-7.748 11.617-5.947 2.6-12.119 1.612-13.791-2.205-0.5-1.146-0.531-2.415-0.18-3.705-0.664-0.412-1.361-0.851-2.092-1.305-1.387-0.889-2.877-1.82-4.347-2.778-1.468-0.968-2.947-1.915-4.312-2.841-0.085-0.059-0.165-0.11-0.249-0.166l2.919 5.109c-1.202 1.319-1.141 3.6 0.24 5.357 1.04 1.322 2.548 1.996 3.896 1.887l4.672 8.179c1.613 1.306 10.709 3.583 28.958 3.583C70.518 67.244 79.502 64 79.502 63h0.144l4.451-7.656c1.351 0.109 2.856-0.495 3.896-1.817 1.383-1.758 1.444-4.003 0.242-5.323l2.918-5.074C91.066 43.185 90.987 43.236 90.902 43.295zM22.525 62.684c-1.172 0-2.121-0.949-2.121-2.119 0-1.172 0.949-2.121 2.121-2.121s2.121 0.949 2.121 2.121C24.646 61.734 23.697 62.684 22.525 62.684zM28.715 64.07c-1.172 0-2.121-0.949-2.121-2.12 0-1.172 0.949-2.12 2.121-2.12 1.17 0 2.117 0.948 2.117 2.12C30.832 63.121 29.885 64.07 28.715 64.07zM34.9 64.764c-1.17 0-2.121-0.949-2.121-2.121s0.951-2.122 2.121-2.122c1.172 0 2.121 0.95 2.121 2.122S36.072 64.764 34.9 64.764zM41.09 65.457c-1.172 0-2.123-0.95-2.123-2.119 0-1.172 0.951-2.121 2.123-2.121 1.17 0 2.117 0.949 2.117 2.121C43.207 64.507 42.26 65.457 41.09 65.457zM47.275 65.457c-1.17 0-2.119-0.95-2.119-2.119 0-1.172 0.949-2.121 2.119-2.121 1.172 0 2.121 0.949 2.121 2.121C49.396 64.507 48.447 65.457 47.275 65.457zM50.373 49.551c-0.027 0.001-0.056 0.009-0.082 0.009-2.29 0-4.146-3.677-4.146-8.209 0-4.534 1.856-8.21 4.146-8.21 0.026 0 0.055 0.01 0.082 0.01 0.029 0 0.057-0.01 0.084-0.01 2.289 0 4.145 3.676 4.145 8.21 0 4.532-1.855 8.209-4.145 8.209C50.43 49.56 50.402 49.552 50.373 49.551zM53.463 65.457c-1.17 0-2.119-0.95-2.119-2.119 0-1.172 0.949-2.121 2.119-2.121 1.174 0 2.121 0.949 2.121 2.121C55.584 64.507 54.637 65.457 53.463 65.457zM59.65 65.457c-1.172 0-2.119-0.95-2.119-2.119 0-1.172 0.947-2.121 2.119-2.121 1.17 0 2.121 0.949 2.121 2.121C61.771 64.507 60.82 65.457 59.65 65.457zM65.838 64.764c-1.17 0-2.119-0.949-2.119-2.121s0.949-2.122 2.119-2.122c1.174 0 2.119 0.95 2.119 2.122S67.012 64.764 65.838 64.764zM72.025 64.07c-1.172 0-2.121-0.949-2.121-2.12 0-1.172 0.949-2.12 2.121-2.12s2.121 0.948 2.121 2.12C74.146 63.121 73.197 64.07 72.025 64.07zM78.213 62.684c-1.172 0-2.119-0.949-2.119-2.119 0-1.172 0.947-2.121 2.119-2.121s2.119 0.949 2.119 2.121C80.332 61.734 79.385 62.684 78.213 62.684z" fill="#ffffff" data-fill-palette-color="quaternary"></path></g></g></svg></g></svg></g></svg></g></svg></g><g></g></svg></g><defs></defs></svg><rect width="395.52" height="160.96459128892974" fill="none" stroke="none" visibility="hidden"></rect></g></svg></g></svg>